<svg width="253" height="290" viewBox="0 0 253 290" fill="none" xmlns="http://www.w3.org/2000/svg">
<path d="M71.793 36.9473C71.4731 36.6063 71.0732 36.3129 70.5514 35.9517L69.8562 35.4662C69.5194 35.2312 69.161 34.9807 68.8576 34.7631L68.3767 34.3722C68.0772 34.1311 67.7677 33.8763 67.4663 33.6469C67.4465 33.6196 67.4248 33.6041 67.4031 33.5885L62.5456 29.7565C62.1613 29.4414 61.7534 29.1226 61.3455 28.8038C61.3356 28.7901 61.3139 28.7746 61.2922 28.759L59.7751 27.5986C59.2942 27.2077 58.7012 26.7627 58.0988 26.3765C57.8252 26.2 57.5911 26.078 57.3532 25.9796C57.3414 25.9777 57.2058 25.9198 57.1822 25.916C56.9661 25.8331 56.7306 25.7955 56.4362 25.7484C56.2596 25.7202 56.0872 25.7409 55.9167 25.7499C55.5522 25.7641 55.2786 25.8894 55.0714 25.977C53.9825 26.4429 53.7882 27.5833 53.6766 28.2055C53.5674 28.8885 53.4488 29.6303 53.3472 30.5681C53.2615 31.2549 53.1976 31.9571 53.159 32.6514L53.1374 32.9378C53.1059 33.2105 53.088 33.4733 53.0621 33.7107C53.0127 34.2463 52.9615 34.7936 52.9319 35.3564C52.899 36.0154 52.8995 36.6918 52.9038 37.3446L52.9006 37.7426C52.9105 38.3601 52.9167 39.0011 52.8876 39.6365L52.8796 40.2149C52.8796 40.2149 52.8754 40.4678 52.8853 40.4815L52.852 41.6717C52.8469 41.7796 52.8398 41.8992 52.8478 41.9247C52.8375 42.1404 52.8427 42.3344 52.854 42.5657L53.8364 42.6141L52.8677 42.8577L52.864 43.1832C52.8523 43.7852 53.0977 44.1384 53.3289 44.429C53.3803 44.4855 53.4297 44.5538 53.483 44.5985C53.507 44.6748 53.531 44.7511 53.5668 44.8293C53.678 45.0403 54.027 45.3497 54.2432 45.4326C54.3454 45.4731 54.4495 45.5018 54.5555 45.5187C54.7556 45.5508 54.9615 45.5474 55.1376 45.5031C55.1885 45.4871 55.3293 45.4372 55.3801 45.4212L55.9924 45.2171C56.2622 45.1154 56.542 45.0273 56.7256 44.9359C56.7647 44.918 56.8274 44.9038 56.8801 44.876C57.2517 44.7422 57.6214 44.6202 57.9911 44.4982L60.2757 43.7283C60.9505 43.5101 61.6174 43.2665 62.2588 43.031L62.6187 42.8953C63.2601 42.6597 63.9072 42.3888 64.6188 42.092L64.8651 41.9864C65.3949 41.7693 65.9346 41.5657 66.4724 41.374L66.7541 41.2741C67.3818 41.0484 68.027 40.7893 68.6331 40.548L70.0625 39.9916C70.3206 39.888 70.5923 39.7744 70.9954 39.6698C71.3595 39.5831 71.6034 39.4168 71.7965 39.2665C72.3093 38.8534 72.4807 38.0838 72.1552 37.4762C72.0501 37.3024 71.9253 37.1013 71.7675 36.9553L71.793 36.9473Z" fill="#003087"/>
<path d="M79.2053 37.0339C79.0315 36.837 78.8676 36.6538 78.6938 36.457C78.0028 35.7185 77.3136 34.9683 76.6227 34.2298C75.8389 33.392 75.0706 32.5325 74.2459 31.7243C73.8394 31.3212 73.4329 30.918 73.0245 30.5267C72.6062 30.1216 72.1724 29.7383 71.7386 29.3549C71.3067 28.9598 70.8729 28.5765 70.4273 28.1912C69.9935 27.8079 69.5305 27.4561 69.0675 27.1043C68.1118 26.3597 67.1561 25.6152 66.183 24.9041C64.3984 23.6043 62.5709 22.3459 60.7085 21.1545C60.303 20.8964 59.8857 20.6365 59.4821 20.3666L59.5903 19.5386C59.683 18.7322 59.7286 17.9183 59.776 17.0926C59.8268 16.1708 59.8521 15.2571 59.795 14.3301C59.7464 13.5012 59.6743 12.6684 59.5532 11.8399C59.416 10.9606 59.277 10.093 59.1007 9.23155C58.9189 8.40542 58.7016 7.57364 58.4453 6.75977C58.1971 5.97132 57.8979 5.1989 57.595 4.45003C57.5173 4.25646 57.4395 4.06288 57.3717 3.88296L57.2205 3.54479C57.1865 3.45484 57.0495 3.17931 57.0019 3.09924C56.804 2.82608 56.5695 2.63158 56.2648 2.49832C55.6181 2.23792 54.8613 2.51543 54.5048 3.15887C54.3419 3.42265 54.2265 3.7665 54.211 4.09009C54.1842 4.48432 54.2653 4.88373 54.4561 5.27653L54.629 5.63024C54.9696 6.44552 55.3003 7.24714 55.5627 8.09822C55.835 8.96296 56.0583 9.83195 56.2365 10.6816C56.58 12.536 56.7587 14.062 56.797 15.4086C56.7933 16.3379 56.7543 17.2616 56.6899 18.1932C56.6692 18.3228 56.6603 18.4542 56.6532 18.5738C56.5331 18.4942 56.413 18.4146 56.291 18.3468C55.8304 18.0558 55.3735 17.7412 54.911 17.462C54.415 17.1653 53.9172 16.8804 53.4193 16.5955C52.9982 16.3591 52.5654 16.1208 52.1132 15.9277L52.0426 15.9164C51.8419 15.8119 51.6455 15.7563 51.4256 15.697C50.972 15.5882 50.5802 15.9241 50.3551 16.2746C50.0641 16.7353 50.0129 17.2826 49.9183 17.7988C49.9408 17.6575 49.9616 17.528 49.9841 17.3867C49.6358 19.2632 49.6073 21.1788 49.5082 23.0831C49.4489 24.2088 49.4368 25.3421 49.3757 26.4796C49.3127 27.6288 49.2733 28.7819 49.2829 29.9307C49.2934 31.2245 49.3039 32.5184 49.3379 33.816C49.3611 34.9549 49.4314 36.1013 49.4664 37.2421C49.5075 38.4201 49.5486 39.5981 49.625 40.7817C49.6618 41.3069 49.6633 41.8264 49.7119 42.3535C49.7529 42.9276 49.8175 43.5055 49.8939 44.0853C50.0405 45.2077 50.2615 46.3179 50.5333 47.412C50.6158 47.7271 50.6865 48.0403 50.7826 48.3455C50.8207 48.4845 50.8707 48.6253 50.907 48.776C50.7224 49.0243 50.5397 49.2607 50.3551 49.509C50.1394 49.8005 49.9256 50.0803 49.7316 50.3875C49.5513 50.6847 49.3728 50.9701 49.2042 51.2693C48.7333 52.0997 48.2625 52.9301 47.7699 53.745C47.2929 54.5383 46.8041 55.3296 46.337 56.1365C45.3369 57.8605 44.3702 59.6019 43.4821 61.3801C43.2712 61.7932 43.0819 62.2218 42.8808 62.6486C42.6934 63.0655 42.4825 63.4786 42.2932 63.9072C42.0921 64.3339 41.901 64.7744 41.6999 65.2011C41.4814 65.6613 41.2648 66.1097 41.0464 66.5699C40.6598 67.4018 40.2751 68.2219 39.8768 69.0518C39.55 69.7362 39.1879 70.415 38.8376 71.0956C38.7594 71.1314 38.6774 71.1908 38.6073 71.252C38.4241 71.416 38.2692 71.7052 38.2197 71.9388L38.216 71.9624C38.0389 71.8616 37.8717 71.7745 37.6946 71.6737C36.8623 71.2146 36.0263 70.779 35.163 70.3632C34.3665 69.9822 33.5602 69.5876 32.7058 69.3423C32.2207 69.2043 31.7375 69.0546 31.2312 68.9736C31.0663 68.9473 30.8897 68.919 30.7329 68.9181C30.5996 68.921 30.4644 68.9356 30.3471 68.9893C30.1343 69.1122 30.0505 69.1834 29.9186 69.4038C29.8042 69.5908 29.7218 69.8796 29.7232 70.0972C29.7139 70.458 29.7577 70.8635 30.03 71.1244C30.1326 71.2374 30.2565 71.2935 30.3978 71.3161C30.4213 71.3198 30.4567 71.3255 30.4802 71.3292C30.614 71.3989 30.7303 71.5021 30.8641 71.5718L31.3798 71.8958C31.7873 72.1421 32.181 72.3982 32.5884 72.6445C33.358 73.1178 34.1159 73.5892 34.901 74.0408C35.7098 74.4962 36.5128 74.9869 37.3196 75.4541C37.7289 75.6886 38.15 75.925 38.5574 76.1713C38.9432 76.402 39.3153 76.6427 39.6892 76.8715C40.4904 77.374 41.2897 77.8883 42.0871 78.4143C42.8845 78.9403 43.7012 79.4211 44.5161 79.9137C45.2975 80.3889 46.077 80.8758 46.8603 81.3392C47.1909 81.537 47.5253 81.7112 47.8734 81.8756C48.0071 81.9452 48.1428 82.0032 48.2803 82.0493C48.4084 82.1543 48.5502 82.2495 48.7226 82.2287C48.805 82.2419 48.8931 82.2197 48.983 82.1858C49.153 82.1043 49.2952 81.9701 49.3823 81.8029C49.5048 81.6413 49.5711 81.3017 49.5876 81.1232C49.6083 80.9936 49.5918 80.8702 49.5753 80.7468C49.5503 80.5255 49.4881 80.3102 49.3732 80.1228C49.2799 79.9509 49.1358 79.795 49.0171 79.6311C48.766 79.3132 48.5131 79.007 48.2601 78.7009C47.7524 78.1004 47.1862 77.5631 46.62 77.0257C46.3162 76.7356 46.0242 76.4474 45.7067 76.1672C45.3893 75.887 45.0464 75.6147 44.727 75.3463C44.4195 75.0797 44.0963 74.8349 43.777 74.5664C43.4459 74.2961 43.1284 74.0159 42.8091 73.7474C42.1704 73.2106 41.5336 72.6619 40.9104 72.1034C40.7093 71.9263 40.4945 71.7591 40.276 71.6155C40.4097 71.3832 40.5453 71.1392 40.679 70.907C41.0162 70.3088 41.3335 69.6833 41.649 69.0695C42.5102 67.3837 43.395 65.7016 44.2228 63.9984C44.6541 63.1133 45.1306 62.2475 45.5954 61.3799C46.0601 60.5122 46.5366 59.6464 47.0348 58.7962C47.9884 57.1372 48.9438 55.4664 49.8186 53.7707C50.2424 52.9327 50.621 52.0755 51.0664 51.253C51.291 50.83 51.5293 50.3972 51.7539 49.9742C51.8081 49.8621 51.8622 49.75 51.9164 49.6378C52.0981 49.5582 52.254 49.4141 52.3548 49.237C52.3877 49.1819 52.4089 49.1249 52.4419 49.0697C52.5926 49.0335 52.7433 48.9972 52.8959 48.9491C53.4945 48.755 54.0869 48.5237 54.6676 48.2905C54.912 48.1967 55.1447 48.1011 55.3891 48.0073C55.9076 47.8608 56.4243 47.726 56.9447 47.5677C57.4905 47.4013 58.0246 47.2331 58.5666 47.0904C59.1224 46.9377 59.6682 46.7714 60.214 46.605C60.7462 46.4486 61.2741 46.2432 61.8082 46.075C62.354 45.9086 62.89 45.7287 63.4377 45.5506C63.9463 45.3904 64.4371 45.1911 64.9457 45.0309C65.4661 44.8726 65.9865 44.7142 66.4989 44.5305C66.9976 44.3566 67.5001 44.1592 68.0007 43.9736C69.0274 43.5943 70.0503 43.2386 71.069 42.8339C71.5597 42.6346 72.0406 42.4216 72.5214 42.2087C73.014 41.9976 73.5085 41.7748 74.003 41.5519C74.4603 41.3352 74.9392 41.134 75.3786 40.8782C75.8434 40.6144 76.2885 40.3233 76.7514 40.0712C77.4409 39.6864 78.1562 39.366 78.8457 38.9811C79.0586 38.8581 79.2596 38.7333 79.3816 38.4992C79.641 38.0093 79.5901 37.4215 79.2227 37.0005L79.2053 37.0339ZM61.3678 24.2066C63.2518 25.4135 65.0892 26.6855 66.8974 27.9891C67.4786 28.4322 68.0735 28.8655 68.6547 29.3087C69.0428 29.6002 69.4173 29.9016 69.7917 30.203C70.6749 30.948 71.5562 31.7048 72.3983 32.4795C73.2207 33.2269 74.0276 33.996 74.8052 34.7966C75.5829 35.5973 76.386 36.3899 77.1462 37.224C77.1976 37.2805 77.2489 37.337 77.2904 37.3798C77.255 37.3742 77.2098 37.3549 77.1764 37.3375C76.9305 37.2136 76.6983 37.0799 76.468 36.9344C75.972 36.6377 75.4879 36.3429 75.0093 36.0128C74.0621 35.3662 73.1441 34.688 72.2261 34.0099C70.7957 32.9116 69.3553 31.7997 67.8975 30.7213L67.9724 30.7816C67.2848 30.2489 66.5933 29.7399 65.892 29.2171C65.9353 29.2482 65.9885 29.2929 66.0319 29.324C65.2024 28.6963 64.3768 28.0449 63.5473 27.4172C62.8144 26.8652 62.0952 26.3034 61.3877 25.7435C60.6704 25.1698 59.9686 24.5746 59.2649 23.9911C59.0204 23.7829 58.7877 23.5766 58.5433 23.3685C58.621 23.2601 58.7024 23.1282 58.774 22.9827C58.8263 22.8824 58.8668 22.7801 58.9171 22.6916C59.7301 23.1959 60.5449 23.6885 61.356 24.2047L61.3678 24.2066ZM56.3483 21.0853L56.3445 21.1088L56.4585 21.1512L56.4938 21.1568C56.516 21.2449 56.5518 21.3231 56.6012 21.3914L56.2541 21.3721C55.8302 21.0024 55.4181 20.6346 55.0059 20.2668C55.1929 20.3812 55.3936 20.4858 55.5806 20.6002C55.8443 20.7631 56.0963 20.9242 56.3601 21.0871L56.3483 21.0853ZM75.595 38.9202C74.7945 39.396 73.9562 39.8054 73.1099 40.1894C72.9319 40.2455 72.7656 40.3034 72.5857 40.3713C71.5864 40.7308 70.595 41.1157 69.5956 41.4752C68.5337 41.8488 67.4815 42.2361 66.4054 42.5471C65.8596 42.7134 65.3218 42.9052 64.7778 43.0597C64.2828 43.21 63.786 43.3721 63.291 43.5224C62.1993 43.8551 61.0959 44.1858 60.0023 44.5303C59.4565 44.6966 58.9206 44.8766 58.3808 45.0801C57.8802 45.2658 57.3758 45.4749 56.8733 45.6723C55.9093 46.0375 54.9057 46.348 53.9238 46.674C53.4269 46.8361 52.9399 47.0119 52.4431 47.1739C52.404 47.1918 52.355 47.1961 52.3159 47.214L52.3216 47.1787C52.2914 46.7632 52.224 46.3539 52.1684 45.9465C52.0166 44.932 51.9039 43.8995 51.8012 42.8808C51.688 41.7758 51.6709 40.6741 51.6049 39.5767C51.5657 38.9907 51.5619 38.4104 51.5345 37.8264C51.5052 37.2541 51.4896 36.672 51.474 36.0898C51.4291 34.9354 51.3607 33.7772 51.3159 32.6227C51.2715 31.5408 51.2407 30.449 51.2199 29.3709C51.2118 28.4397 51.2272 27.5123 51.2445 26.5731C51.2713 25.575 51.2726 24.585 51.3111 23.5888C51.3237 23.1319 51.3364 22.675 51.3491 22.2181C51.3617 21.7612 51.3645 21.2907 51.3772 20.8338C51.3936 20.3534 51.4355 19.865 51.4656 19.3746C51.6747 19.5771 51.8956 19.7815 52.1165 19.9859C52.4637 20.3071 52.8226 20.6302 53.1697 20.9514C53.5366 21.2999 53.9153 21.6503 54.294 22.0007C54.6529 22.3237 55.0156 22.6233 55.3764 22.9346C55.7254 23.244 56.0646 23.5397 56.4273 23.8392C57.2058 24.483 57.9571 25.1466 58.7357 25.7904C60.2476 27.0586 61.7926 28.2718 63.3785 29.4553C64.3676 30.2172 65.3685 30.9811 66.3731 31.7214C66.9977 32.1956 67.6222 32.6699 68.2605 33.1342C68.8634 33.5929 69.478 34.0535 70.0946 34.5023C71.3437 35.4508 72.5966 36.3757 73.8923 37.2592C74.5343 37.7 75.2055 38.1092 75.8668 38.5048C75.9336 38.5396 76.0005 38.5745 76.0655 38.6211C75.9054 38.7163 75.7335 38.8095 75.5597 38.9146L75.595 38.9202Z" fill="#003087"/>
<path d="M93.1478 270.986C88.1083 270.181 83.0842 267.24 79.2594 262.764C73.2971 255.796 70.9803 246.344 72.7264 236.177C74.7837 224.14 85.5705 216.868 95.0965 210.457C102.161 205.693 108.832 201.205 111.216 195.511C114.923 186.672 114.649 178.344 113.686 173.637C113.553 174.473 113.387 175.437 113.129 176.519C111.229 184.705 104.632 204.289 84.8292 209.117C70.9685 212.504 61.757 210.15 52.8795 207.897C48.5163 206.789 44.3966 205.743 39.7518 205.339C34.4265 204.886 30.1122 206.418 27.274 209.744C24.3153 213.22 23.1742 218.544 24.3564 223.311C25.704 228.779 30.9677 229.995 34.81 230.887C36.628 231.299 37.9434 231.606 38.7837 232.392C40.34 233.837 40.8735 237.146 39.279 239.415C37.6634 241.741 33.7286 243.467 24.2597 238.644C16.3229 234.585 10.6971 225.438 9.9109 215.325C9.18032 205.921 12.7366 197.65 19.6744 192.624C29.6459 185.391 41.3969 187.874 52.7908 190.324C59.4006 191.731 65.6472 193.068 71.3539 192.495C87.3554 190.899 93.0765 184.797 96.7105 176.116C97.8415 173.422 98.3975 171.531 98.6573 170.208C93.7908 175.118 82.2837 184.026 62.3217 184.638C49.3607 185.041 37.616 180.253 29.2991 171.17C21.4165 162.543 17.6691 151.087 19.0233 139.746C21.0452 122.945 32.5737 111.335 41.8413 102.009C44.6066 99.2144 47.2239 96.5896 49.3675 94.0582C58.6613 83.0572 54.6921 75.1042 50.8969 70.0653C48.935 67.457 45.0687 65.8848 42.246 64.733C39.3998 63.5775 37.3477 62.7421 37.3479 60.7012C37.3524 58.7093 39.5325 57.8382 40.5784 57.4137C45.0812 55.6097 54.5511 56.7254 62.0038 61.697C66.5542 64.7312 72.027 70.3041 72.1627 79.5763C72.3559 92.7947 62.5223 103.999 53.0019 114.831C49.2544 119.087 45.725 123.111 42.9773 127.08C37.8139 134.527 36.215 142.942 38.5819 150.192C40.8928 157.264 46.7405 162.607 55.4938 165.637C75.0163 172.381 91.6489 158.605 92.755 156.294C92.6772 156.1 92.2149 152.874 91.7237 149.451C90.0161 137.548 86.4669 112.767 87.0343 94.7916C87.8576 69.2487 100.344 39.1098 132.895 38.2282C148.906 37.7813 162.527 43.5219 171.22 54.3315C180.668 66.0831 183.341 82.8257 178.716 101.481C172.82 125.295 156.621 158.342 153.581 164.438C155.57 167.63 162.681 178.44 170.352 183.483C178.395 188.767 186.428 190.715 193.631 189.089C199.595 187.736 204.62 183.951 208.147 178.126C216.554 164.218 208.935 148.424 202.215 134.488L201.392 132.762C193.692 116.725 193.95 94.6421 207.817 86.9085C218.292 81.0598 228.001 84.4599 230.737 85.622C232.725 86.4833 235.186 87.855 235.611 89.5049C235.975 90.9278 235.513 91.9288 235.078 92.5355C233.999 93.9934 231.773 94.7001 227.648 94.8979C218.9 95.3106 213.802 100.232 212.462 109.522C211.505 116.107 215.624 123.577 220.377 132.223C224.962 140.552 230.153 150.005 231.38 160.381C232.727 171.816 228.542 183.948 220.204 192.819C211.548 202.026 199.367 206.684 185.867 205.926C167.069 204.853 155.42 192.592 148.942 183.634C151.291 188.128 154.58 193.388 158.291 197.822C160.865 200.902 164.417 204.139 168.169 207.565C176.641 215.296 186.254 224.055 190.098 235.659C193.096 244.7 191.385 256.008 185.723 264.462C181.532 270.736 173.32 278.444 158.038 279.539C142.955 280.605 134.305 275.116 129.713 270.3C123.849 264.157 120.952 255.385 121.96 246.815C123.037 237.664 127.136 232.113 130.749 230.661C132.403 229.984 134.006 230.156 135.171 231.103C136.986 232.589 136.297 235.087 135.357 238.548C134.075 243.246 132.306 249.701 135.942 254.981C138.765 259.079 144.434 262.135 150.465 262.556C157.162 263.12 163.487 260.713 168.299 255.771C172.232 251.714 173.998 247.009 173.532 241.765C172.707 232.504 164.995 222.201 151.801 212.737C136.809 201.971 132.453 187.676 130.615 180.293C130.642 187.676 130.585 196.036 124.241 206.036C121.738 209.983 116.301 214.306 110.545 218.893C102.768 225.088 93.9399 232.118 91.5538 238.886C87.9821 248.99 93.1761 254.796 96.2807 258.264L97.2623 259.375C97.8195 260.043 98.6556 260.781 99.4997 261.544C102.034 263.821 104.432 265.967 103.517 268.442C102.635 270.788 99.3043 271.15 96.1582 271.19C95.1664 271.2 94.1642 271.125 93.1751 270.967L93.1478 270.986ZM113.709 166.323C114.497 166.449 115.177 166.956 115.746 167.856C118.055 171.462 120.246 184.118 114.839 197.021C112.005 203.789 104.86 208.6 97.294 213.707C87.9963 219.973 78.3746 226.453 76.5927 236.844C74.5048 248.997 79.2371 256.71 82.2479 260.234C86.0844 264.712 91.3125 267.36 96.0796 267.301C97.8594 267.271 98.872 267.131 99.4258 266.991C98.8309 266.255 97.6477 265.197 96.8668 264.492C95.8631 263.595 94.881 262.713 94.2347 261.922L93.3459 260.91C90.1504 257.332 83.499 249.916 87.8461 237.605C90.6193 229.776 99.9055 222.372 108.098 215.845C113.589 211.482 118.767 207.346 120.926 203.96C126.735 194.817 126.703 187.312 126.681 180.051L126.683 178.904C126.689 177.733 126.638 176.614 126.596 175.593C126.468 172.541 126.38 170.523 127.554 169.297C128.063 168.763 128.762 168.464 129.523 168.465C132.436 168.448 132.856 171.558 133.446 174.816C133.621 175.762 133.797 176.781 134.038 177.761C135.687 184.594 139.09 198.809 154.093 209.577C168.231 219.712 176.528 231.037 177.447 241.449C178.003 247.794 175.815 253.7 171.107 258.526C165.47 264.327 158.025 267.158 150.138 266.489C142.895 265.874 136.23 262.321 132.711 257.217C128.047 250.433 130.17 242.669 131.571 237.532C131.864 236.455 132.245 235.055 132.351 234.239C132.134 234.313 131.833 234.458 131.439 234.733C129.273 236.27 126.671 240.383 125.86 247.27C124.988 254.69 127.481 262.286 132.55 267.589C138.312 273.619 147.024 276.377 157.77 275.631C171.476 274.647 178.772 267.831 182.474 262.276C187.486 254.793 189.02 244.822 186.388 236.889C182.857 226.265 173.645 217.872 165.531 210.464C161.674 206.949 158.039 203.626 155.291 200.349C148.053 191.692 140.053 176.694 141.491 172.613C141.82 171.687 142.525 171.051 143.436 170.871C145.145 170.528 145.904 171.748 147.933 174.995C152.735 182.719 163.821 200.771 186.094 202.014C198.412 202.691 209.507 198.475 217.362 190.13C224.915 182.088 228.706 171.137 227.503 160.836C226.36 151.222 221.58 142.523 216.96 134.104C212.077 125.22 207.464 116.838 208.604 108.953C210.223 97.6911 216.761 91.4664 227.491 90.9721C229.742 90.8612 230.895 90.5987 231.47 90.4008C228.95 88.6451 219.546 84.847 209.759 90.3226C198.275 96.7466 198.004 116.569 204.963 131.05L205.797 132.778C212.954 147.605 221.05 164.418 211.544 180.143C207.456 186.904 201.583 191.315 194.542 192.906C186.272 194.784 177.184 192.643 168.235 186.756C158.469 180.315 150.052 166.12 149.689 165.518C149.346 164.944 149.328 164.229 149.628 163.637C149.819 163.269 168.569 126.282 174.944 100.528C179.265 83.0918 176.859 67.5511 168.198 56.7707C160.28 46.9303 147.756 41.7276 133.021 42.1248C103.212 42.9256 91.747 71.0541 90.9792 94.891C90.4174 112.529 93.9317 137.075 95.6209 148.866C96.3953 154.219 96.647 156.119 96.609 156.886C96.4298 159.442 91.2783 163.038 89.711 164.08C84.486 167.531 70.5343 174.961 54.2419 169.313C41.667 164.96 36.7676 157.16 34.8906 151.377C32.1435 142.955 33.9222 133.264 39.7905 124.807C42.6761 120.655 46.2795 116.546 50.0892 112.204C59.1231 101.922 68.4528 91.3011 68.2833 79.5961C68.1666 72.0176 63.6472 67.4304 59.8707 64.9185C53.7923 60.8671 46.5016 59.9428 42.9685 60.7425C43.2398 60.8584 43.513 60.9624 43.7626 61.0627C47.0058 62.3784 51.4364 64.1979 54.0686 67.6741C61.1705 77.1062 60.6073 86.8222 52.3872 96.5457C50.1522 99.1954 47.4765 101.883 44.6547 104.729C35.3442 114.097 24.807 124.718 22.9508 140.181C21.7283 150.395 25.1016 160.717 32.2259 168.498C39.7609 176.731 50.4105 181.043 62.2407 180.688C87.2279 179.913 98.1028 164.914 98.2097 164.774C98.6952 164.079 99.5773 163.773 100.394 164.025C100.67 164.117 101.67 164.506 102.28 165.824C103.36 168.134 102.731 171.994 100.359 177.617C95.3947 189.407 87.1128 194.833 71.7617 196.364C65.4654 197 58.6239 195.531 52.0024 194.122C40.9659 191.778 30.585 189.562 22.0103 195.763C16.2061 199.968 13.2256 206.979 13.8529 214.989C14.5363 223.781 19.3462 231.687 26.0909 235.121C32.1394 238.226 35.2502 238.18 36.0554 237.221C36.5631 236.614 36.3322 235.49 36.1127 235.202C35.9653 235.142 34.801 234.871 33.9626 234.677C29.9574 233.746 22.5145 232.037 20.5751 224.227C19.0768 218.191 20.5196 211.659 24.3264 207.184C26.8999 204.153 31.7387 200.7 40.1277 201.402C45.0941 201.833 49.5732 202.972 53.8794 204.059C62.7197 206.318 71.0396 208.434 83.9453 205.28C101.638 200.96 107.611 183.088 109.353 175.589C109.885 173.319 110.039 171.677 110.17 170.479C110.335 168.766 110.593 166.175 113.451 166.269C113.546 166.284 113.655 166.278 113.75 166.293L113.709 166.323Z" fill="#003087"/>
<path d="M93.3949 125.855C79.9457 128.33 82.0099 148.803 94.5919 149.185C101.78 149.392 107.609 145.337 107.899 138.837C108.262 130.37 101.518 124.364 93.4067 125.857L93.3949 125.855Z" fill="#003087"/>
<path d="M162.087 136.839C174.094 143.384 165.75 162.193 153.676 158.632C146.782 156.588 142.508 150.917 144.258 144.652C146.553 136.492 154.833 132.889 162.075 136.837L162.087 136.839Z" fill="#003087"/>
<path d="M92.9978 137.554C97.4603 138.267 98.5828 131.322 94.1085 130.606C89.6342 129.891 88.5235 136.838 92.9978 137.554Z" fill="white"/>
<path d="M152.952 140.353L152.749 140.49C153.816 140.383 154.884 140.276 155.952 140.169L155.928 140.165C155.366 139.906 154.777 139.812 154.174 139.885C153.721 139.921 153.326 140.051 152.949 140.293C152.547 140.47 152.215 140.731 151.953 141.087C151.576 141.558 151.334 142.087 151.238 142.688L151.23 142.735L151.209 143.625L151.412 144.467C151.553 144.719 151.682 144.969 151.823 145.221C152.067 145.586 152.384 145.866 152.774 146.073C153.008 146.268 153.268 146.382 153.574 146.431C153.855 146.56 154.15 146.607 154.445 146.57C154.74 146.617 155.034 146.592 155.317 146.48C155.75 146.416 156.141 146.237 156.486 145.967L156.527 145.937C156.892 145.693 157.186 145.366 157.379 144.986C157.653 144.632 157.817 144.211 157.865 143.76L157.889 142.858C157.826 142.268 157.62 141.74 157.274 141.262L157.245 141.221C157.352 142.289 157.459 143.357 157.566 144.424L157.641 144.183L157.876 143.387C157.956 142.965 157.938 142.552 157.796 142.155C157.766 141.884 157.673 141.64 157.505 141.408C157.345 141.044 157.094 140.726 156.771 140.481L156.09 140.058L155.295 139.822C154.873 139.743 154.459 139.761 154.062 139.903C153.665 139.972 153.301 140.132 152.971 140.381L152.952 140.353Z" fill="white"/>
<path d="M161.255 81.7699C161.456 81.4157 161.731 81.1335 162.092 80.9135C162.546 80.491 163.074 80.213 163.678 80.0561C164.099 79.9906 164.507 79.935 164.928 79.8695C165.775 79.8599 166.562 80.0704 167.306 80.4791C167.383 80.5276 167.448 80.5743 167.54 80.6011C168.097 80.8954 168.54 81.2924 168.871 81.7921C169.293 82.2461 169.583 82.7755 169.728 83.3784C169.93 84.0025 169.964 84.6237 169.839 85.2558C169.823 85.8813 169.645 86.4687 169.303 87.0179C168.671 88.0279 167.707 88.9243 166.513 89.2164C166.092 89.282 165.684 89.3376 165.263 89.4031C164.416 89.4126 163.617 89.2003 162.873 88.7915C162.452 88.5551 162.07 88.2283 161.697 87.9151C161.234 87.4908 160.903 86.9911 160.705 86.416C160.408 85.8612 160.262 85.2583 160.282 84.6093C160.336 84.1952 160.378 83.7793 160.434 83.3535C160.569 82.7351 160.848 82.2 161.259 81.7464L161.255 81.7699Z" fill="#003087"/>
<path d="M151.49 71.3929C151.219 70.9026 151.099 70.3642 151.117 69.7995C151.164 69.4326 151.21 69.0657 151.257 68.6987C151.443 67.9917 151.793 67.3836 152.301 66.849C152.578 66.6276 152.855 66.4062 153.132 66.1848C153.773 65.8041 154.469 65.6015 155.22 65.5887C155.792 65.5594 156.33 65.6696 156.82 65.9291C157.337 66.0962 157.787 66.3736 158.17 66.773C158.582 67.1408 158.873 67.5858 159.045 68.0964C159.317 68.5867 159.436 69.125 159.419 69.6898C159.372 70.0567 159.325 70.4236 159.279 70.7905C159.093 71.4975 158.743 72.1057 158.234 72.6403C157.958 72.8617 157.681 73.0831 157.404 73.3045C156.763 73.6852 156.067 73.8878 155.316 73.9006C154.744 73.9298 154.206 73.8197 153.716 73.5602C153.199 73.3931 152.749 73.1157 152.366 72.7163C151.954 72.3485 151.662 71.9034 151.49 71.3929Z" fill="#003087"/>
<path d="M149.198 85.2039C154.11 85.144 154.206 92.7795 149.284 92.8257C144.371 92.8856 144.276 85.2501 149.198 85.2039Z" fill="#003087"/>
<path d="M59.0349 70.7507L59.325 70.7488C59.658 70.7055 59.965 70.5976 60.2382 70.3997C60.5113 70.2018 60.7194 69.9574 60.8546 69.6408C60.9902 69.3968 61.0674 68.914 61.0146 68.6399C60.9712 68.3069 60.8633 67.9998 60.6655 67.7267C60.4677 67.4535 60.2232 67.2454 59.9067 67.1102L59.6316 67.0179C59.3052 66.8691 58.9638 66.8145 58.6073 66.8541C58.2625 66.8956 57.9536 67.0153 57.6687 67.2113L57.3004 67.5509C57.0748 67.8288 56.9416 68.1336 56.8851 68.4868C56.8418 68.7577 56.8494 69.0125 56.9313 69.255C56.9761 69.5037 57.0717 69.7364 57.2319 69.9432C57.4415 70.2182 57.6977 70.4282 58.0124 70.5752C58.3388 70.724 58.6802 70.7786 59.0367 70.739L59.0349 70.7507Z" fill="#003087"/>
<path d="M58.9904 77.6752C59.0045 77.7378 59.0069 77.7986 59.021 77.8612L59.1379 78.3388C59.2198 78.5814 59.3583 78.7726 59.5359 78.9459C59.6348 79.0825 59.7629 79.1875 59.9085 79.2591C60.1134 79.4126 60.3394 79.5091 60.6004 79.5388L61.1062 79.5472L61.5837 79.4303C61.8263 79.3484 62.0175 79.2099 62.1908 79.0323C62.3839 78.882 62.5355 78.6889 62.6339 78.451C62.6669 78.3959 62.688 78.3389 62.721 78.2838C63.0111 77.678 62.9488 76.8589 62.5277 76.3206L62.1881 75.9523C61.9102 75.7268 61.6054 75.5935 61.2522 75.537C60.9814 75.4937 60.7266 75.5013 60.4841 75.5833C60.2354 75.628 60.0028 75.7237 59.796 75.8838C59.2361 76.2894 58.9055 76.9974 59.0003 77.6888L58.9904 77.6752Z" fill="#003087"/>
<path d="M58.8007 90.7961C61.1438 91.1708 61.7274 87.5204 59.3843 87.1457C57.0412 86.7711 56.4576 90.4215 58.8007 90.7961Z" fill="#003087"/>
<path d="M25.5889 150.493L25.5936 150.917L25.6742 151.244C25.7321 151.41 25.8193 151.545 25.9455 151.661C26.0148 151.757 26.0995 151.831 26.2018 151.871C26.3416 151.978 26.5008 152.04 26.6793 152.057C26.9148 152.094 27.1381 152.057 27.3669 151.985C27.5332 151.927 27.6679 151.84 27.7847 151.714C27.9231 151.603 28.0164 151.473 28.0898 151.316L28.2263 150.915C28.3365 150.679 28.3742 150.444 28.3431 150.185C28.3101 149.938 28.2243 149.719 28.0858 149.528C27.8546 149.237 27.5494 149.032 27.1843 148.973C26.8311 148.917 26.4416 149.011 26.1548 149.219C25.9618 149.369 25.812 149.551 25.7056 149.763C25.5954 149.999 25.5578 150.235 25.5889 150.493Z" fill="#003087"/>
<path d="M29.429 162.351C31.9134 162.748 32.5446 158.876 30.0484 158.477C27.5522 158.077 26.9329 161.952 29.429 162.351Z" fill="#003087"/>
<path d="M35.7159 169.479C36.0437 169.543 36.3494 169.52 36.6546 169.424C36.964 169.376 37.2376 169.251 37.499 169.051C37.7683 168.877 37.9628 168.643 38.1159 168.365C38.3141 168.107 38.4219 167.81 38.461 167.49L38.4783 166.853C38.4246 166.434 38.2809 166.049 38.0336 165.707L37.6092 165.265C37.2781 164.995 36.8947 164.825 36.4708 164.757C36.143 164.692 35.8374 164.716 35.5322 164.812C35.2228 164.859 34.9491 164.985 34.6878 165.184C34.4184 165.359 34.2239 165.593 34.0709 165.871C33.8726 166.129 33.7648 166.425 33.7258 166.745L33.7084 167.383C33.7621 167.802 33.9058 168.187 34.1531 168.528L34.5775 168.971C34.9086 169.241 35.292 169.411 35.7159 169.479Z" fill="#003087"/>
<path d="M72.0976 176.588C72.0976 176.588 72.1414 176.692 72.1692 176.745C72.2988 177.067 72.4948 177.352 72.7726 177.578C73.0505 177.803 73.3769 177.952 73.7302 178.009C74.0952 178.067 74.4399 178.025 74.7743 177.898C75.0969 177.768 75.3818 177.572 75.6074 177.294C75.6502 177.253 75.6931 177.211 75.7242 177.168C75.9653 176.869 76.1159 176.53 76.1762 176.153C76.2364 175.777 76.1987 175.408 76.063 175.049C75.7879 174.352 75.1572 173.841 74.4154 173.722C73.6736 173.604 72.9149 173.893 72.4365 174.469C72.1954 174.768 72.0447 175.106 71.9845 175.483C71.9242 175.86 71.962 176.228 72.0976 176.588Z" fill="#003087"/>
<path d="M16.0263 218.766C18.9699 219.237 19.714 214.658 16.7587 214.185C13.8033 213.713 13.0709 218.294 16.0263 218.766Z" fill="#003087"/>
<path d="M17.9436 209.569C20.5104 209.979 21.1467 205.999 18.5799 205.589C16.0131 205.178 15.3768 209.158 17.9436 209.569Z" fill="#003087"/>
<path d="M24.074 204.003C26.6644 204.418 27.3064 200.402 24.716 199.988C22.1256 199.574 21.4836 203.589 24.074 204.003Z" fill="#003087"/>
<path d="M60.295 204.566C62.9089 204.984 63.5584 200.921 60.9445 200.503C58.3305 200.085 57.681 204.148 60.295 204.566Z" fill="#003087"/>
<path d="M68.8955 205.531C71.533 205.953 72.1881 201.855 69.5506 201.433C66.9131 201.011 66.258 205.109 68.8955 205.531Z" fill="#003087"/>
<path d="M78.726 205.146C78.9091 204.982 79.1041 204.82 79.2656 204.641C79.657 204.232 79.7793 203.467 79.5348 202.957C79.4256 202.734 79.3026 202.521 79.1797 202.308L78.8184 201.924L78.3676 201.647C78.11 201.521 77.8528 201.468 77.5726 201.484C77.396 201.455 77.2119 201.474 77.0437 201.544C76.8714 201.565 76.7051 201.623 76.5549 201.731C76.3867 201.801 76.2502 201.9 76.1315 202.038C75.9813 202.147 75.8763 202.275 75.8009 202.444C75.6338 202.659 75.5335 202.909 75.5001 203.193L75.486 203.734L75.609 204.249L75.861 204.712L76.2223 205.096L76.673 205.373C76.9307 205.499 77.1878 205.552 77.468 205.537C77.6447 205.565 77.8288 205.546 77.9969 205.476C78.2574 205.433 78.4919 205.326 78.7104 205.168L78.726 205.146Z" fill="#003087"/>
<path d="M122.729 188.983C123.045 189.046 123.339 189.02 123.632 188.922C123.93 188.873 124.201 188.76 124.437 188.568C124.693 188.404 124.886 188.181 125.025 187.913C125.21 187.665 125.327 187.382 125.365 187.074L125.378 186.46C125.334 186.055 125.187 185.693 124.949 185.365L124.547 184.939C124.226 184.682 123.854 184.514 123.454 184.45C123.138 184.387 122.844 184.413 122.55 184.511C122.253 184.56 121.981 184.673 121.745 184.865C121.489 185.029 121.297 185.252 121.157 185.52C120.973 185.768 120.855 186.051 120.818 186.359L120.804 186.973C120.848 187.378 120.995 187.74 121.233 188.068L121.636 188.495C121.957 188.751 122.328 188.919 122.729 188.983Z" fill="#003087"/>
<path d="M121.552 196.343C124.06 196.744 124.697 192.836 122.177 192.434C119.657 192.031 119.032 195.94 121.552 196.343Z" fill="#003087"/>
<path d="M117.903 202.704C120.34 203.093 120.958 199.303 118.509 198.912C116.06 198.52 115.454 202.312 117.903 202.704Z" fill="#003087"/>
<path d="M94.4785 226.105C96.9393 226.499 97.563 222.674 95.0903 222.278C92.6177 221.883 92.0058 225.71 94.4785 226.105Z" fill="#003087"/>
<path d="M86.8238 229.724C86.7654 229.787 86.6834 229.847 86.6368 229.912L86.3595 230.363C86.2338 230.62 86.1787 230.889 86.1961 231.158C86.1679 231.334 86.1868 231.519 86.2565 231.687C86.2994 231.947 86.4049 232.193 86.565 232.4L86.9263 232.784L87.3771 233.061C87.6347 233.187 87.9036 233.242 88.1721 233.225C88.4448 233.256 88.7052 233.213 88.9633 233.11C89.0514 233.088 89.1197 233.038 89.1997 232.991C89.536 232.851 89.8228 232.643 90.0601 232.367C90.2993 232.08 90.45 231.741 90.5102 231.364L90.5281 230.8C90.4904 230.431 90.3627 230.097 90.1432 229.808C89.9868 229.578 89.7857 229.401 89.5516 229.279C89.325 229.11 89.0754 229.01 88.7792 228.974C88.4024 228.914 88.0459 228.954 87.6861 229.089C87.3498 229.229 87.063 229.437 86.8257 229.713L86.8238 229.724Z" fill="#003087"/>
<path d="M84.0662 241.988C86.5741 242.389 87.2109 238.481 84.6912 238.079C82.1715 237.676 81.5464 241.585 84.0662 241.988Z" fill="#003087"/>
<path d="M128.953 257.908C128.953 257.908 129.034 258.006 129.076 258.049C129.352 258.359 129.494 258.526 129.878 258.696C130.047 258.772 129.772 258.752 130.373 258.848C130.973 258.944 130.694 258.875 130.89 258.858C131.308 258.816 131.495 258.701 131.854 258.493C131.907 258.465 131.962 258.426 132.015 258.398L132.426 258.017L132.72 257.533C132.86 257.265 132.919 256.973 132.893 256.679C132.925 256.478 132.906 256.294 132.827 256.113C132.81 255.917 132.74 255.748 132.619 255.596C132.552 255.416 132.443 255.266 132.293 255.146C132.184 254.995 132.034 254.875 131.867 254.788C131.629 254.617 131.369 254.503 131.061 254.466L130.471 254.456L129.919 254.585L129.429 254.857L129.018 255.238L128.723 255.722C128.584 255.99 128.525 256.282 128.55 256.576C128.518 256.776 128.537 256.96 128.617 257.142C128.656 257.426 128.773 257.674 128.953 257.908Z" fill="#003087"/>
<path d="M135.705 266.053C136.078 266.366 136.472 266.695 136.988 266.717C137.212 266.753 137.429 266.751 137.635 266.676C137.846 266.637 138.04 266.559 138.205 266.429L138.505 266.139C138.686 265.914 138.812 265.656 138.859 265.362L138.874 265.268L138.9 264.801C138.883 264.605 138.817 264.413 138.75 264.233L138.63 263.924C138.399 263.332 137.839 262.832 137.185 262.763L136.68 262.755C136.36 262.788 136.063 262.91 135.792 263.096C135.589 263.233 135.427 263.412 135.321 263.625C135.167 263.83 135.083 264.058 135.055 264.307C134.951 264.954 135.207 265.623 135.707 266.041L135.705 266.053Z" fill="#003087"/>
<path d="M143.395 270.374C143.678 270.419 143.944 270.413 144.212 270.323C144.484 270.282 144.719 270.175 144.939 270.005C145.17 269.849 145.345 269.659 145.469 269.413C145.638 269.187 145.738 268.937 145.771 268.653L145.787 268.1C145.748 267.743 145.62 267.409 145.402 267.108L145.041 266.724C144.753 266.485 144.427 266.336 144.05 266.276C143.768 266.231 143.501 266.237 143.233 266.327C142.961 266.368 142.726 266.475 142.506 266.645C142.276 266.801 142.1 266.991 141.977 267.237C141.807 267.463 141.707 267.713 141.674 267.997L141.658 268.55C141.697 268.907 141.825 269.241 142.043 269.542L142.404 269.926C142.692 270.165 143.018 270.314 143.395 270.374Z" fill="#003087"/>
<path d="M178.198 245.893C178.251 245.938 178.302 245.994 178.356 246.039C178.764 246.43 179.529 246.552 180.039 246.308C180.104 246.282 180.17 246.244 180.235 246.218C180.491 246.127 180.708 245.98 180.883 245.791C181.033 245.682 181.138 245.554 181.213 245.385C181.382 245.158 181.483 244.908 181.514 244.636L181.53 244.083L181.407 243.568C181.315 243.312 181.169 243.095 180.98 242.92C180.871 242.77 180.743 242.665 180.574 242.589C180.347 242.42 180.097 242.32 179.825 242.288L179.272 242.272L178.757 242.395C178.501 242.487 178.284 242.634 178.109 242.823C177.959 242.932 177.854 243.06 177.778 243.229C177.609 243.456 177.509 243.705 177.478 243.978L177.462 244.531L177.585 245.046C177.712 245.38 177.922 245.655 178.198 245.893Z" fill="#003087"/>
<path d="M176.573 253.712L176.939 253.843C177.299 254.009 177.664 254.068 178.058 254.022C178.426 253.984 178.774 253.847 179.074 253.629L179.472 253.258C179.713 252.958 179.864 252.62 179.924 252.243C179.971 251.949 179.967 251.67 179.877 251.402C179.836 251.13 179.719 250.882 179.549 250.662C179.331 250.361 179.041 250.134 178.705 249.971C178.345 249.805 177.98 249.746 177.587 249.792L177.198 249.803C177.022 249.847 176.858 249.893 176.684 249.926C176.428 250.017 176.211 250.164 176.036 250.353C175.885 250.462 175.78 250.59 175.705 250.759C175.536 250.986 175.436 251.236 175.404 251.508L175.388 252.061L175.511 252.576C175.603 252.832 175.75 253.049 175.939 253.224C176.111 253.433 176.314 253.598 176.575 253.7L176.573 253.712Z" fill="#003087"/>
<path d="M148.286 204.205C150.9 204.623 151.55 200.56 148.936 200.142C146.322 199.724 145.672 203.787 148.286 204.205Z" fill="#003087"/>
<path d="M207.395 195.746C210.056 196.172 210.717 192.039 208.056 191.613C205.395 191.188 204.734 195.321 207.395 195.746Z" fill="#003087"/>
<path d="M213.985 188.745C214.052 188.78 214.12 188.803 214.187 188.838C214.299 188.892 214.415 188.923 214.545 188.943C214.657 188.998 214.771 189.04 214.902 189.049C215.336 189.13 215.853 189.068 216.256 188.891C216.655 188.737 216.996 188.49 217.266 188.159C217.55 187.818 217.722 187.423 217.792 186.987C217.862 186.551 217.81 186.12 217.658 185.71C217.504 185.311 217.257 184.969 216.926 184.699C216.399 184.216 215.645 184.023 214.956 184.106C214.881 184.118 214.809 184.119 214.735 184.131L214.118 184.286C213.811 184.394 213.555 184.558 213.347 184.803C213.17 184.931 213.047 185.093 212.956 185.284C212.758 185.542 212.637 185.849 212.596 186.18L212.576 186.829L212.731 187.446C212.839 187.753 213.004 188.009 213.248 188.217C213.45 188.466 213.698 188.651 213.991 188.782L213.985 188.745Z" fill="#003087"/>
<path d="M222.711 179.404C222.673 179.193 222.653 178.936 222.55 178.751C222.438 178.467 222.27 178.235 222.036 178.04C221.801 177.846 221.52 177.716 221.214 177.668C220.908 177.619 220.612 177.656 220.317 177.766C220.033 177.877 219.801 178.045 219.606 178.28C219.462 178.426 219.352 178.662 219.25 178.851C219.116 179.156 219.065 179.474 219.097 179.805C219.131 180.124 219.242 180.408 219.43 180.667L219.75 181.008C220.006 181.218 220.287 181.348 220.617 181.4C220.864 181.44 221.096 181.429 221.324 181.356C221.559 181.322 221.769 181.222 221.96 181.084C222.219 180.896 222.414 180.661 222.545 180.368C222.678 180.063 222.729 179.745 222.698 179.414L222.711 179.404Z" fill="#003087"/>
<path d="M212.701 132.421C215.527 132.872 216.241 128.482 213.403 128.028C210.566 127.575 209.864 131.967 212.701 132.421Z" fill="#003087"/>
<path d="M208.853 121.069C208.859 120.877 208.866 120.685 208.861 120.491C208.853 120.308 208.799 120.046 208.729 119.878C208.601 119.544 208.344 119.188 208.076 118.976C207.785 118.761 207.431 118.559 207.052 118.511C206.673 118.462 206.319 118.49 205.959 118.626C205.689 118.728 205.445 118.894 205.233 119.089C205.082 119.198 204.962 119.348 204.886 119.517C204.812 119.602 204.75 119.689 204.724 119.781C204.656 119.975 204.601 120.172 204.545 120.368C204.375 120.752 204.313 121.14 204.355 121.558C204.401 121.951 204.536 122.311 204.774 122.639C205.145 123.109 205.646 123.455 206.246 123.551C206.823 123.643 207.463 123.492 207.929 123.144C208.257 122.906 208.498 122.606 208.664 122.247C208.834 121.863 208.896 121.475 208.855 121.057L208.853 121.069Z" fill="#003087"/>
<path d="M221.781 95.7954C220.778 91.7948 219.774 87.8059 218.771 83.8053C218.251 81.6933 217.03 80.1938 215.03 79.2581C212.987 78.2913 210.969 77.244 208.999 76.12C207.893 75.4842 206.818 74.7326 205.922 73.8406C205.391 73.3089 204.944 72.4042 204.941 71.667C204.911 66.7954 205.012 61.9327 205.078 57.0643C205.078 56.8349 205.138 56.615 205.126 56.3837C205.079 54.5647 205.255 54.291 207.056 54.3615C210.85 54.4972 214.406 53.7012 217.834 52.1239C219.073 51.5491 219.314 51.7083 219.986 52.8664C222.403 57.0087 224.847 61.1312 227.293 65.2419C228.189 66.7377 227.662 68.1508 226.929 69.4103C225.227 72.3506 223.565 75.3454 221.548 78.0662C220.176 79.924 220.095 81.638 220.703 83.6553C222.068 88.1848 223.356 92.7384 224.721 97.2679C225.242 98.9936 225.914 100.683 226.511 102.385C226.809 103.242 227.442 103.439 228.238 103.144C229.689 102.603 231.106 101.972 232.581 101.508C233.039 101.363 233.904 101.164 234.13 101.635C234.357 102.106 233.693 102.784 233.302 102.963C231.207 103.908 229.056 104.748 226.907 105.576C224.474 106.515 222.036 107.418 219.589 108.294C218.821 108.57 217.997 108.813 217.19 108.877C216.749 108.915 215.935 108.869 215.793 108.4C215.651 107.93 216.302 107.406 216.691 107.239C217.831 106.757 219.052 106.445 220.237 106.055C220.593 105.943 220.955 105.795 221.293 105.644C223.51 104.694 223.944 103.943 223.352 101.602C222.867 99.6524 222.243 97.7411 221.679 95.8274L221.73 95.8114L221.781 95.7954ZM218.575 69.0166C219.983 68.4446 221.67 67.7845 223.334 67.0482C225.204 66.2241 225.317 65.8195 224.28 64.0717C222.683 61.3768 221.085 58.6819 219.473 55.9968C218.778 54.8349 218.336 54.7281 217.025 55.0739C215.563 55.4561 214.091 55.752 212.6 56.0089C211.41 56.205 210.201 56.2894 208.998 56.4111C208.201 56.4889 207.672 56.8511 207.501 57.6933C206.585 62.0634 206.761 66.4754 206.973 70.8929C207.007 71.5867 207.37 71.9588 208.071 71.8777C209.229 71.7367 210.412 71.6603 211.526 71.3432C213.805 70.6812 216.036 69.8665 218.575 69.0166Z" fill="#003087"/>
</svg>
