<svg width="794" height="647" viewBox="0 0 794 647" fill="none" xmlns="http://www.w3.org/2000/svg">
<g filter="url(#filter0_i_1_59)">
<path d="M0 302.203C0 156.827 0 84.1381 45.5483 39.9456C91.0965 -4.24693 163.752 -2.05117 309.062 2.34033L503.063 8.2033C640.562 12.3588 709.312 14.4365 751.656 58.0794C794 101.722 794 170.504 794 308.066V333.201C794 468.603 794 536.304 752.553 579.766C711.105 623.229 643.481 626.44 508.231 632.864L314.231 642.077C166.718 649.082 92.9606 652.585 46.4803 608.26C0 563.935 0 490.095 0 342.415V302.203Z" fill="white"/>
</g>
<defs>
<filter id="filter0_i_1_59" x="0" y="0.132812" width="794" height="650.06" filterUnits="userSpaceOnUse" color-interpolation-filters="sRGB">
<feFlood flood-opacity="0" result="BackgroundImageFix"/>
<feBlend mode="normal" in="SourceGraphic" in2="BackgroundImageFix" result="shape"/>
<feColorMatrix in="SourceAlpha" type="matrix" values="0 0 0 0 0 0 0 0 0 0 0 0 0 0 0 0 0 0 127 0" result="hardAlpha"/>
<feOffset dy="3.91758"/>
<feGaussianBlur stdDeviation="46.0316"/>
<feComposite in2="hardAlpha" operator="arithmetic" k2="-1" k3="1"/>
<feColorMatrix type="matrix" values="0 0 0 0 0 0 0 0 0 0 0 0 0 0 0 0 0 0 0.25 0"/>
<feBlend mode="normal" in2="shape" result="effect1_innerShadow_1_59"/>
</filter>
</defs>
</svg>
