<svg width="324" height="257" viewBox="0 0 324 257" fill="none" xmlns="http://www.w3.org/2000/svg">
<path fill-rule="evenodd" clip-rule="evenodd" d="M245.56 70.6908C245.08 70.5106 244.601 70.3303 244.124 70.1524L244.134 70.2163C244.055 70.0548 243.908 69.9756 243.762 69.8965C243.685 69.855 243.608 69.8135 243.541 69.76C243.402 69.6733 243.263 69.5843 243.124 69.4953C242.986 69.4063 242.847 69.3174 242.708 69.2308C242.613 69.1317 242.505 69.0445 242.398 68.9574C242.318 68.892 242.237 68.8267 242.162 68.7563C242 68.7517 241.838 68.7449 241.676 68.738C241.514 68.7312 241.351 68.7243 241.189 68.7198C241.137 68.6809 241.083 68.6431 241.03 68.6054C240.783 68.431 240.538 68.2583 240.393 67.9806L239.125 67.8164C239.134 67.7845 239.143 67.7549 239.152 67.7253C239.162 67.6956 239.171 67.6659 239.18 67.6339C238.81 67.497 238.44 67.3624 238.069 67.2278C237.699 67.0932 237.329 66.9586 236.958 66.8217C236.586 66.47 236.124 66.2795 235.662 66.0891C235.309 65.9436 234.956 65.7981 234.644 65.5807L233.736 65.4804C233.412 65.2796 233.125 65.0332 232.838 64.7869L231.329 64.6317C231.233 64.5556 231.139 64.4775 231.044 64.3994C230.855 64.2433 230.665 64.0872 230.468 63.9473C230.317 63.9261 230.169 63.9069 230.021 63.8878C229.851 63.8658 229.683 63.844 229.514 63.8196C229.492 63.7965 229.469 63.7732 229.447 63.75C229.212 63.5073 228.979 63.2673 228.616 63.2173C228.477 63.1626 228.341 63.1101 228.204 63.0577C228.068 63.0052 227.931 62.9527 227.792 62.898C227.464 62.5303 227.484 62.1033 227.505 61.6792C227.509 61.577 227.514 61.475 227.514 61.3741C227.507 60.5998 227.51 59.8255 227.513 59.0519C227.518 57.9473 227.523 56.844 227.496 55.7439C227.481 55.2515 227.5 54.7581 227.518 54.265C227.557 53.223 227.596 52.1822 227.32 51.154C227.26 49.4005 227.202 47.6471 227.144 45.8936C227.086 44.143 227.028 42.3924 226.968 40.6419C226.868 40.2417 226.844 39.8266 226.82 39.4113C226.781 38.7469 226.742 38.0818 226.394 37.4755L226.339 36.4078C226.058 35.9877 225.978 35.5101 225.899 35.0314C225.837 34.6576 225.775 34.2831 225.616 33.9349L225.265 32.4019C224.897 32.0205 224.68 31.5396 224.462 31.0582C224.17 30.4107 223.877 29.7623 223.218 29.3541C222.653 28.7369 222.083 28.1235 221.515 27.5116C221.218 27.1917 220.921 26.8722 220.626 26.5527C220.563 26.4972 220.491 26.4521 220.419 26.4069C220.277 26.3183 220.135 26.2291 220.061 26.06C219.876 25.8729 219.691 25.6882 219.506 25.5034C219.32 25.3186 219.135 25.1338 218.95 24.9467C218.779 24.8843 218.69 24.7452 218.601 24.6051C218.56 24.5402 218.518 24.4752 218.469 24.4174L218.2 24.2623C218.033 23.9977 217.811 23.7787 217.571 23.5688C217.237 23.2951 216.904 23.0191 216.571 22.7431C216.237 22.467 215.904 22.191 215.571 21.9172C215.376 21.6708 215.154 21.4518 214.895 21.2784C213.543 20.4207 212.191 19.572 210.839 18.7234C210.746 18.5726 210.596 18.4853 210.446 18.3978C210.269 18.2948 210.091 18.1916 210.006 17.9843C209.414 17.6193 208.821 17.2634 208.228 16.9075C208.185 16.8679 208.146 16.8238 208.106 16.7798C208.018 16.6818 207.93 16.5837 207.803 16.5334C207.145 16.1866 206.488 15.849 205.83 15.5114C205.655 15.265 205.442 15.0551 205.164 14.9091L204.053 14.6627C203.939 14.545 203.846 14.4017 203.753 14.2583C203.522 13.9017 203.29 13.5443 202.729 13.5768C202.446 13.4719 202.162 13.367 201.877 13.262C201.592 13.1571 201.308 13.0521 201.025 12.9472L200.979 12.8195L200.312 12.3267C200.164 12.1474 199.968 12.0364 199.773 11.9256C199.591 11.8221 199.409 11.7188 199.266 11.5602C199.168 11.5476 199.068 11.5331 198.967 11.5184C198.849 11.5012 198.729 11.4837 198.609 11.4689C198.498 11.3822 198.394 11.2887 198.29 11.1956C198.1 11.0241 197.911 10.854 197.683 10.7298C197.586 10.7207 197.488 10.7093 197.391 10.6979C197.294 10.6865 197.197 10.6751 197.1 10.6659C196.791 10.2611 196.367 10.0148 195.943 9.76924C195.641 9.59413 195.339 9.41935 195.081 9.18766C194.993 9.17398 194.903 9.16029 194.813 9.1466C194.722 9.13291 194.632 9.11923 194.544 9.10554C194.322 8.9907 194.137 8.83327 193.952 8.67644C193.829 8.57156 193.706 8.46695 193.572 8.37553C193.12 8.18254 192.666 7.99271 192.21 7.80232C191.89 7.66863 191.569 7.53466 191.248 7.39915C191.168 7.33885 191.092 7.27266 191.015 7.20641C190.791 7.01201 190.566 6.81715 190.248 6.76951L189.461 6.64176C189.295 6.58295 189.178 6.46031 189.061 6.33795C188.924 6.19454 188.787 6.05152 188.572 6.01213C188.341 5.98475 188.107 5.95737 187.873 5.92999C187.639 5.90262 187.406 5.87525 187.174 5.84788C186.981 5.77832 186.817 5.65691 186.652 5.53516C186.493 5.41733 186.333 5.29918 186.146 5.22737C185.813 5.10418 185.482 4.97871 185.151 4.85324C184.82 4.72777 184.489 4.6023 184.156 4.47912C184.165 4.43805 184.174 4.39471 184.184 4.35136C184.193 4.30802 184.202 4.26468 184.211 4.22361H182.026C181.577 3.91911 181.058 3.85524 180.539 3.79142C180.062 3.73284 179.586 3.6743 179.165 3.42973L179.054 3.41148C178.857 3.10211 178.545 2.97993 178.231 2.85711C178.147 2.82415 178.063 2.79115 177.98 2.75447C177.786 2.74534 177.589 2.73622 177.392 2.72709C177.195 2.71796 176.999 2.70884 176.804 2.69972C176.439 2.64471 176.073 2.6525 175.705 2.66028C175.281 2.66929 174.856 2.6783 174.434 2.59022L173.851 2.51722C173.74 2.6176 173.647 2.6176 173.555 2.49897C173.471 2.48985 173.397 2.48072 173.314 2.46247C173.059 2.24677 172.744 2.23493 172.429 2.2231C172.092 2.2104 171.754 2.1977 171.49 1.93321L169.157 1.82371C168.942 1.63916 168.678 1.54786 168.414 1.45672C168.143 1.3631 167.873 1.26965 167.657 1.07546C166.273 1.06177 164.889 1.05036 163.504 1.03896C162.12 1.02755 160.736 1.01614 159.352 1.00246C159.278 0.929454 159.204 0.929454 159.13 1.00246C159.032 0.997892 158.933 0.991049 158.833 0.984205C158.734 0.977361 158.634 0.970517 158.537 0.965955C155.593 0.591826 152.658 0.673952 149.713 1.01158H145.01C145.019 1.08914 145.029 1.16443 145.038 1.23971C145.047 1.31499 145.056 1.39027 145.066 1.46783C144.709 1.54996 144.353 1.63437 143.996 1.71877C143.64 1.80318 143.283 1.88759 142.927 1.96971C142.896 1.98379 142.865 1.99789 142.835 2.012C142.087 2.35457 141.336 2.699 140.483 2.68147L139.631 2.7271C138.843 3.31204 137.921 3.55731 137 3.80257C136.512 3.93226 136.024 4.06195 135.557 4.24186C135.333 4.25623 135.11 4.26808 134.959 4.2761C134.822 4.28337 134.744 4.28749 134.779 4.28749C134.489 4.43878 134.25 4.56282 134.045 4.66921C133.669 4.86444 133.407 5.00028 133.15 5.13612C132.492 5.29125 131.89 5.55588 131.307 5.87525C131.219 5.88438 131.134 5.89579 131.048 5.90719C130.962 5.9186 130.877 5.93001 130.789 5.93913C130.418 6.04862 130.159 6.3041 129.9 6.55959L129.9 6.55964C129.664 6.59614 129.425 6.63036 129.187 6.66458C128.949 6.6988 128.71 6.73302 128.474 6.76951C128.354 6.69651 128.233 6.68739 128.104 6.73301C127.725 6.7148 127.337 6.69658 126.949 6.67837L126.946 6.67826C127.076 6.80601 127.196 6.94289 127.317 7.07977L125.095 7.73677C124.937 8.34815 124.456 8.69491 123.965 9.03254C123.65 9.25154 123.327 9.46243 123.004 9.67332C122.843 9.77877 122.681 9.88421 122.521 9.99067C122.215 10.1002 121.984 10.3101 121.789 10.5656C121.516 10.6021 121.243 10.6363 120.97 10.6705C120.697 10.7047 120.424 10.7389 120.15 10.7754C119.863 10.9579 119.632 11.1952 119.4 11.4416C119.13 11.465 118.861 11.486 118.608 11.5058C118.368 11.5246 118.141 11.5424 117.938 11.5602C117.669 11.8365 117.405 12.108 117.145 12.376C116.392 13.1521 115.667 13.8983 114.938 14.6445C114.785 15.0067 114.465 15.086 114.146 15.1653C113.886 15.2298 113.627 15.2944 113.456 15.5114C113.239 15.5342 113.024 15.5547 112.808 15.5752C112.593 15.5958 112.378 15.6163 112.16 15.6391L112.299 15.9402C111.85 16.1547 111.399 16.3714 110.947 16.5881C110.496 16.8048 110.045 17.0216 109.596 17.236C109.435 17.3714 109.278 17.511 109.122 17.6506C108.708 18.0187 108.295 18.3866 107.818 18.6778L103.688 21.251C103.346 21.4062 103.105 21.6708 102.864 21.9445C102.726 22.0905 102.589 22.2365 102.452 22.3825C102.316 22.5285 102.179 22.6745 102.04 22.8206C100.513 24.31 99.1985 25.9757 97.8881 27.6355C97.6491 27.9382 97.4103 28.2408 97.1703 28.542C96.8787 29.0712 96.5894 29.5981 96.3001 30.125C96.0108 30.652 95.7214 31.1791 95.4297 31.7084C95.2268 31.7849 95.147 31.9561 95.0663 32.1293C95.0218 32.2248 94.977 32.3208 94.9112 32.4019C94.8742 32.5525 94.8372 32.7053 94.8001 32.8582C94.7631 33.011 94.7261 33.1638 94.689 33.3144C94.5779 33.4558 94.4599 33.5904 94.3418 33.725C94.2238 33.8596 94.1057 33.9942 93.9946 34.1357C93.9668 34.5338 93.9389 34.9342 93.911 35.3347C93.8833 35.7327 93.8557 36.1307 93.828 36.5264C93.7417 36.6411 93.6493 36.7527 93.5563 36.865C93.42 37.0298 93.2825 37.196 93.1613 37.3751L92.9669 39.7294C92.7452 40.1869 92.7446 40.6854 92.744 41.1846C92.7433 41.7903 92.7425 42.3969 92.3466 42.9323C92.3234 44.2919 92.3026 45.6515 92.2818 47.0112C92.2609 48.3708 92.2401 49.7304 92.2169 51.0901C92.1753 51.2022 92.1316 51.3138 92.088 51.4256C91.9183 51.8599 91.7481 52.2955 91.6892 52.76C91.6522 53.8322 91.6174 54.9021 91.5827 55.972C91.548 57.0419 91.5133 58.1118 91.4762 59.184C91.1377 59.6359 91.143 60.1461 91.1484 60.658C91.1501 60.818 91.1518 60.9782 91.1429 61.1368C91.1205 61.5836 91.1311 62.0338 91.1418 62.4843C91.1662 63.5241 91.1908 64.5656 90.8096 65.5716V86.2764C90.2877 86.4112 89.8867 86.513 89.5283 86.604C89.3526 86.6487 89.1871 86.6907 89.0227 86.7327C88.8233 86.8932 88.5918 87.0089 88.361 87.1244C87.9487 87.3306 87.5387 87.5356 87.3191 87.992C85.9679 88.7034 84.6074 89.4149 83.2469 90.1264L83.2453 90.1272L80.7454 91.4413C80.5271 91.4529 80.4216 91.5943 80.3162 91.7355C80.2563 91.8158 80.1964 91.896 80.1158 91.9523L79.8103 92.1439C79.6441 92.2155 79.5565 92.3561 79.4692 92.4964C79.4009 92.6061 79.3327 92.7156 79.227 92.7918C79.0742 92.8283 78.9238 92.8671 78.7733 92.9058C78.6228 92.9446 78.4724 92.9834 78.3196 93.0199C78.0145 93.2072 77.7932 93.4744 77.5724 93.741C77.3845 93.9678 77.197 94.1942 76.9586 94.3704C76.0813 95.0348 75.1948 95.6992 74.3083 96.3636L74.3014 96.3688C74.0131 96.3386 73.932 96.5205 73.851 96.7026C73.8096 96.7953 73.7683 96.8881 73.6995 96.9528C73.4915 97.1398 73.2875 97.3307 73.0848 97.5204C72.9809 97.6177 72.8773 97.7146 72.7737 97.8106C72.3848 97.8836 72.1256 98.1117 71.9404 98.4402L71.7552 99.3071C71.7055 99.3633 71.655 99.4189 71.6047 99.4743C71.4017 99.6977 71.1999 99.9199 71.0516 100.183L70.9682 100.84C70.6419 101.019 70.52 101.321 70.398 101.623C70.3643 101.706 70.3305 101.79 70.2923 101.871V105.704C70.3828 105.971 70.5651 106.172 70.7497 106.375C70.7919 106.422 70.8343 106.468 70.8756 106.516C70.908 106.657 70.9381 106.799 70.9682 106.94C70.9983 107.082 71.0284 107.223 71.0608 107.365C71.2074 107.67 71.44 107.904 71.6703 108.136C71.7018 108.168 71.7333 108.2 71.7645 108.231C71.7876 108.341 71.8084 108.45 71.8293 108.56C71.8501 108.669 71.8709 108.779 71.8941 108.888C71.9963 108.976 72.1241 108.988 72.2519 109C72.3904 109.013 72.5289 109.026 72.6348 109.135C72.8024 109.337 72.9684 109.539 73.1306 109.736C73.3716 110.029 73.604 110.311 73.8199 110.567H77.7734C78.207 110.308 78.5428 110.105 78.8468 109.92C78.9712 109.844 79.0902 109.772 79.2085 109.701C79.3936 109.527 79.5788 109.354 79.7918 109.217L80.6065 108.961C80.7113 108.906 80.8224 108.861 80.9332 108.816C81.2436 108.69 81.5514 108.565 81.7083 108.222C81.8102 108.19 81.9143 108.161 82.0185 108.131C82.1226 108.101 82.2268 108.072 82.3287 108.04C82.6995 108.007 82.9236 107.765 83.1512 107.519C83.1793 107.489 83.2075 107.459 83.236 107.428C83.398 107.41 83.5577 107.392 83.7175 107.374C83.8772 107.355 84.0369 107.337 84.1989 107.319C84.4767 107.073 84.7452 106.808 85.0044 106.552C85.1109 106.525 85.2198 106.5 85.3286 106.475C85.4373 106.45 85.5461 106.425 85.6525 106.397C85.8819 106.264 86.0917 106.097 86.2997 105.932C86.3771 105.87 86.4543 105.809 86.5321 105.749C86.9211 105.599 87.3102 105.45 87.6992 105.302C88.0879 105.154 88.4766 105.006 88.8653 104.855C89.2046 104.778 89.4458 104.548 89.6887 104.316C89.7043 104.301 89.72 104.286 89.7356 104.271C90.1476 104.271 90.5596 104.276 90.9717 104.28C91.3837 104.285 91.7957 104.289 92.2077 104.289L92.291 104.362L92.2632 104.463V106.552C92.3095 106.635 92.3003 106.717 92.2632 106.799C92.2401 106.904 92.2192 107.011 92.1984 107.118C92.1776 107.225 92.1568 107.333 92.1336 107.438C92.1087 107.464 92.0835 107.491 92.0583 107.517C91.8578 107.727 91.6542 107.941 91.5966 108.241C91.5503 108.542 91.5133 108.843 91.4763 109.144L91.4762 109.144C91.26 109.412 91.2034 109.741 91.1468 110.068C91.0823 110.442 91.018 110.815 90.717 111.097C90.6893 111.626 90.6522 112.155 90.6337 112.42C90.383 112.811 90.191 113.115 90.0208 113.384C89.9207 113.542 89.8282 113.689 89.7356 113.834C89.2542 115.294 88.4857 116.581 87.3561 117.658C87.2544 117.721 87.1434 117.776 87.0325 117.831L87.0321 117.831C86.8567 118.111 86.5721 118.215 86.2888 118.318C86.0636 118.4 85.8392 118.483 85.671 118.652C85.5077 118.698 85.3379 118.738 85.1724 118.776C85.1409 118.784 85.1096 118.791 85.0785 118.798C85.0044 118.871 84.9581 118.963 84.9396 119.072C84.9837 119.217 85.0335 119.356 85.0846 119.498C85.098 119.535 85.1114 119.573 85.1248 119.61C85.3007 119.811 85.4951 119.985 85.7173 120.121H92.2077V122.649C91.8846 122.843 91.7628 123.163 91.6423 123.479C91.6212 123.534 91.6002 123.589 91.5781 123.644C91.5596 123.749 91.5434 123.851 91.5272 123.954C91.511 124.057 91.4948 124.159 91.4762 124.264C91.3604 124.441 91.2295 124.608 91.099 124.776C91.0001 124.902 90.9014 125.029 90.8096 125.158C90.7758 125.567 90.7396 125.974 90.7034 126.379C90.6701 126.752 90.637 127.123 90.6059 127.494C90.4566 128.083 90.1234 128.589 89.7893 129.097C89.3776 129.722 88.9646 130.35 88.8931 131.135C88.8746 131.373 88.5598 131.573 88.2913 131.71C88.1897 131.938 88.0881 132.174 87.9865 132.411L87.9857 132.413C87.9346 132.482 87.8797 132.55 87.8247 132.617C87.6707 132.804 87.517 132.992 87.4487 133.234L87.3654 133.864C87.1432 134.174 86.8932 134.439 86.6062 134.676V136.492C86.9741 136.463 87.3248 136.436 87.6645 136.409C88.1882 136.369 88.6859 136.33 89.1801 136.291C89.9856 135.807 90.7541 135.634 91.4207 136.51V137.012C91.2509 137.224 91.1904 137.486 91.1298 137.748C91.055 138.071 90.98 138.395 90.6985 138.627C90.4578 138.727 90.2171 138.828 89.9393 138.946C89.918 139.041 89.8954 139.137 89.8724 139.234C89.8354 139.39 89.7976 139.55 89.7634 139.713C89.7303 139.749 89.6968 139.786 89.6632 139.822C89.4527 140.051 89.2379 140.285 89.0782 140.553C89.0484 140.714 89.0212 140.879 88.9938 141.045C88.9702 141.187 88.9465 141.331 88.9208 141.474C88.7357 141.629 88.5783 141.784 88.4301 141.967C88.3374 142.164 88.2501 142.366 88.1641 142.565C88.1385 142.625 88.1131 142.684 88.0876 142.743C87.9579 142.697 87.8839 142.733 87.8468 142.861C87.7774 142.971 87.708 143.078 87.6385 143.185C87.5691 143.292 87.4996 143.4 87.4302 143.509C87.2302 143.661 87.104 143.868 86.9778 144.076C86.8761 144.243 86.7744 144.411 86.6339 144.549L86.4951 145.234C86.3793 145.371 86.259 145.505 86.1386 145.64C86.0182 145.774 85.8979 145.909 85.7821 146.046C85.5045 146.488 85.2291 146.928 84.9537 147.369C84.6782 147.809 84.4027 148.249 84.1248 148.692C83.8934 148.975 83.6249 149.23 83.3378 149.459C83.3334 149.528 83.3269 149.6 83.3203 149.673C83.313 149.752 83.3057 149.834 83.3008 149.915C83.2082 149.951 83.1527 150.015 83.1342 150.116C82.736 150.64 82.3402 151.165 81.9444 151.69C81.5486 152.214 81.1528 152.739 80.7547 153.264C80.353 153.679 80.0385 154.16 79.7242 154.641C79.3139 155.268 78.904 155.895 78.3011 156.375C77.8705 156.823 77.4423 157.27 77.014 157.717C76.5858 158.164 76.1577 158.611 75.7272 159.058C75.5236 159.097 75.4271 159.245 75.3301 159.394C75.2682 159.489 75.2062 159.584 75.1161 159.651C75.0791 159.688 75.0421 159.724 75.0143 159.761C74.9544 159.84 74.8682 159.896 74.7819 159.952C74.628 160.053 74.4739 160.153 74.468 160.381L74.1347 160.628C73.681 160.929 73.357 161.303 73.1625 161.823C72.894 162.544 72.4496 163.155 71.82 163.63C71.518 163.872 71.2244 164.131 70.9309 164.389C69.6319 165.534 68.3334 166.678 66.3018 166.395C65.9465 166.549 65.5582 166.558 65.1703 166.568C64.6385 166.581 64.1075 166.594 63.6631 166.979C63.269 167.005 62.8771 167.03 62.4863 167.054C62.0691 167.08 61.6532 167.106 61.2373 167.134C60.9298 167.277 60.693 167.498 60.4589 167.716C60.4252 167.747 60.3915 167.778 60.3577 167.809C60.1355 167.855 59.9133 167.891 59.6911 167.928C59.5222 168.053 59.3623 168.192 59.2029 168.332C59.0827 168.437 58.9627 168.541 58.8393 168.64C57.9597 169.205 57.0802 169.762 56.2006 170.319C55.9228 170.483 55.7006 170.702 55.6266 171.03C55.5618 171.231 55.5063 171.432 55.4507 171.632L55.4506 171.633C55.1097 171.871 54.84 172.183 54.5697 172.495C54.3335 172.767 54.0968 173.04 53.8118 173.266C53.7933 173.312 53.7748 173.366 53.7563 173.421C53.2934 174.042 53.5711 174.562 53.9229 175.137C54.5354 176.12 55.5058 176.562 56.4765 177.004C56.6945 177.104 56.9125 177.203 57.1265 177.308C57.5801 177.536 57.9783 177.792 57.9783 178.367C57.9783 178.796 57.7098 179.124 57.3209 179.234C56.1661 179.546 55.5329 180.403 54.8956 181.265C54.8431 181.337 54.7906 181.408 54.7377 181.479L54.6636 181.561C54.6313 181.593 54.5989 181.624 54.5666 181.656C54.3401 181.878 54.1162 182.098 53.9137 182.345V185.192C53.9693 185.133 54.0272 185.074 54.0851 185.014C54.1429 184.955 54.2008 184.896 54.2563 184.837C54.4228 185.018 54.5873 185.201 54.7684 185.403C54.9698 185.628 55.1917 185.876 55.4599 186.169C55.8673 186.443 56.5154 186.881 57.1728 187.328C57.7653 187.629 58.3671 187.939 58.8578 188.395C59.9967 189.463 61.2651 189.445 62.5984 188.824C62.7604 188.801 62.9201 188.776 63.0798 188.751C63.2395 188.726 63.3992 188.701 63.5613 188.678C63.8483 188.45 64.1075 188.213 64.376 187.966L66.2648 186.406C66.3852 186.274 66.5103 186.141 66.6353 186.009C66.7602 185.877 66.8852 185.744 67.0055 185.612L68.6535 183.824C69.0454 183.248 69.5554 182.789 70.0703 182.325C70.2001 182.208 70.3303 182.091 70.459 181.971C70.808 181.648 71.1777 181.342 71.5479 181.036C72.5132 180.238 73.482 179.438 74.0977 178.303C74.2597 178.052 74.4195 177.799 74.5793 177.545C74.7389 177.292 74.8986 177.039 75.0606 176.788C75.4772 176.122 76.0605 175.602 76.6623 175.109C76.792 174.954 76.9239 174.799 77.0559 174.644C77.1878 174.489 77.3197 174.334 77.4493 174.178C77.7456 173.969 77.9956 173.704 78.1993 173.403C78.5326 172.892 78.8752 172.372 79.2177 171.861C79.4862 171.614 79.7362 171.359 79.9584 171.076C79.9966 170.968 80.0348 170.857 80.0742 170.743C80.1113 170.635 80.1495 170.525 80.1899 170.41C80.2991 170.36 80.4101 170.31 80.5231 170.26C80.6593 170.199 80.7982 170.137 80.9398 170.072C81.2083 169.89 81.4306 169.689 81.5046 169.36C81.6713 169.109 81.8403 168.856 82.0092 168.603C82.1782 168.35 82.3472 168.097 82.5138 167.846C82.5864 167.766 82.6607 167.687 82.7351 167.608C82.9075 167.424 83.0808 167.24 83.236 167.043C83.5138 166.65 83.7915 166.256 84.0693 165.861C84.347 165.466 84.6248 165.072 84.9026 164.679C85.111 164.424 85.346 164.192 85.5809 163.962C85.8991 163.649 86.2169 163.336 86.4673 162.964C86.8753 162.24 87.2883 161.521 87.7027 160.8C87.8525 160.539 88.0024 160.278 88.1524 160.016C88.1061 159.907 88.1524 159.843 88.2635 159.816C88.3792 159.788 88.4926 159.763 88.606 159.738C88.7195 159.713 88.8329 159.688 88.9486 159.66C89.2356 159.441 89.4949 159.186 89.7356 158.921C90.1762 158.353 90.6123 157.78 91.047 157.209C91.2334 156.964 91.4197 156.72 91.6059 156.476C91.649 156.433 91.6963 156.394 91.7438 156.355C91.8696 156.251 91.9965 156.146 92.0503 155.974C92.1151 155.805 92.1776 155.636 92.2401 155.468C92.3026 155.299 92.3651 155.13 92.4299 154.961C92.5942 154.872 92.6766 154.721 92.7587 154.57C92.82 154.457 92.8811 154.344 92.9762 154.258C93.2076 153.83 93.4298 153.41 93.8835 152.552C93.8743 152.643 93.9113 152.223 93.9576 151.804C94.1822 151.62 94.24 151.348 94.2979 151.076C94.3664 150.754 94.4352 150.431 94.7816 150.252L94.7874 150.252C95.2762 150.206 95.7647 150.161 96.1982 150.125V157.443C95.8984 158.721 95.936 160.014 95.9736 161.305C95.9964 162.088 96.0191 162.87 95.9667 163.648C95.9567 163.813 95.9676 163.981 95.9785 164.149C96.008 164.605 96.0374 165.059 95.6519 165.446V178.924C96.1056 178.997 96.4759 179.051 96.8555 179.106C96.9296 179.051 97.013 179.006 97.1055 178.978C97.6425 178.048 98.2258 177.199 99.5313 177.555L99.6424 177.619L99.6054 177.737C99.6239 178.746 99.6447 179.756 99.6656 180.767C99.6864 181.777 99.7072 182.788 99.7258 183.796C99.8924 184.066 99.9619 184.369 100.031 184.672C100.101 184.976 100.17 185.279 100.337 185.548C100.355 186.907 100.376 188.268 100.397 189.629C100.418 191.012 100.439 192.395 100.457 193.779C100.846 194.1 100.866 194.534 100.886 194.967C100.903 195.349 100.92 195.73 101.189 196.033C101.226 196.567 101.263 197.104 101.3 197.64C101.337 198.176 101.374 198.712 101.411 199.245C101.486 199.356 101.566 199.463 101.645 199.57C101.783 199.754 101.92 199.937 102.031 200.139C102.087 200.888 102.142 201.636 102.198 202.293C103.864 202.831 104.725 202.028 105.42 200.897C105.716 200.678 105.994 200.431 106.188 200.103L106.29 200.03C106.549 199.838 106.753 199.61 106.864 199.3C106.877 199.199 106.892 199.096 106.907 198.991C106.924 198.87 106.942 198.747 106.957 198.625C107.109 198.505 107.172 198.32 107.235 198.134C107.326 197.868 107.417 197.601 107.772 197.52C108.117 197.595 108.211 197.859 108.304 198.122C108.371 198.31 108.437 198.498 108.596 198.615C108.619 199.113 108.64 199.61 108.66 200.107C108.681 200.605 108.702 201.102 108.725 201.599C108.82 201.697 108.88 201.818 108.939 201.938C109.019 202.1 109.098 202.261 109.262 202.366C109.318 202.626 109.373 202.889 109.429 203.151C109.485 203.413 109.54 203.676 109.596 203.935C109.688 204.328 109.79 204.711 110.16 204.957C110.164 204.973 110.166 204.99 110.168 205.007C110.172 205.04 110.176 205.074 110.188 205.103L110.262 205.204L110.197 205.313C110.224 205.504 110.239 205.7 110.254 205.896C110.287 206.318 110.32 206.743 110.466 207.129C110.791 207.99 111.18 208.831 111.568 209.67C111.711 209.979 111.854 210.287 111.994 210.597C112.159 210.799 112.339 210.993 112.52 211.187C112.592 211.263 112.663 211.34 112.734 211.418C113.031 211.943 113.329 212.465 113.628 212.988C113.926 213.51 114.225 214.032 114.521 214.557C114.547 214.952 114.811 215.178 115.082 215.408C115.099 215.423 115.115 215.437 115.132 215.451L115.16 215.588C115.771 215.944 116.271 215.762 116.697 215.269L116.79 214.092C116.734 213.982 116.725 213.873 116.771 213.763C116.762 213.572 116.762 213.389 116.762 213.197C116.788 212.937 116.771 212.672 116.754 212.409C116.723 211.934 116.693 211.466 116.919 211.044C117.29 210.825 117.53 210.925 117.734 211.172L117.78 211.217C118.447 211.6 118.873 212.203 119.234 212.86L119.289 212.951C119.407 213.045 119.479 213.174 119.552 213.302C119.634 213.448 119.716 213.593 119.863 213.69C120.733 214.511 121.603 215.33 122.473 216.148C123.344 216.968 124.215 217.787 125.085 218.609C125.104 218.878 125.293 218.966 125.481 219.055C125.58 219.101 125.679 219.148 125.752 219.22C126.007 219.384 126.262 219.551 126.517 219.718C126.771 219.884 127.025 220.05 127.28 220.215C127.363 220.269 127.419 220.342 127.456 220.434C127.294 221.667 127.134 222.902 126.975 224.139C126.833 225.236 126.692 226.334 126.548 227.433C126.451 227.564 126.346 227.691 126.242 227.818C126.108 227.981 125.973 228.143 125.854 228.318C125.817 228.747 125.78 229.166 125.733 229.686C125.521 229.887 125.252 230.134 124.983 230.371C124.289 230.982 123.598 231.593 122.906 232.204C122.213 232.816 121.521 233.427 120.826 234.039C120.447 234.13 120.225 234.386 120.113 234.751C120.049 234.961 119.975 235.171 119.91 235.353C119.66 235.453 119.456 235.536 119.243 235.618C119.166 235.697 119.065 235.751 118.963 235.804C118.797 235.892 118.63 235.98 118.567 236.183C118.543 236.235 118.519 236.285 118.495 236.334C118.464 236.399 118.432 236.463 118.401 236.53C118.328 236.59 118.237 236.629 118.146 236.669C117.96 236.749 117.774 236.829 117.743 237.087C117.669 237.105 117.623 237.142 117.586 237.205C117.252 237.297 117.086 237.534 117.002 237.853C116.965 237.954 116.931 238.052 116.896 238.15C116.861 238.248 116.827 238.346 116.79 238.447C116.178 238.788 115.929 239.363 115.681 239.938C115.531 240.285 115.381 240.633 115.151 240.929C115.132 240.992 115.104 241.056 115.077 241.12C114.911 241.477 114.773 241.848 114.634 242.22C114.237 243.283 113.84 244.345 112.818 245.062C112.61 245.183 112.399 245.303 112.143 245.45C111.874 245.604 111.554 245.787 111.132 246.029H108.596C108.223 246.362 107.794 246.341 107.366 246.32C107.22 246.313 107.073 246.305 106.929 246.312C106.641 246.327 106.353 246.339 106.065 246.351C104.768 246.405 103.472 246.458 102.207 246.787C101.656 246.814 101.103 246.839 100.55 246.864C99.9966 246.889 99.4434 246.915 98.8925 246.942C98.8697 246.949 98.8469 246.955 98.824 246.962C98.4658 247.064 98.1031 247.167 97.9203 247.544C97.6518 247.562 97.3833 247.583 97.1148 247.604C96.8463 247.624 96.5778 247.645 96.3093 247.663C94.902 248.083 93.5502 248.621 92.1984 249.187L92.1058 249.278C92.079 249.307 92.052 249.335 92.0249 249.363C91.8278 249.57 91.6329 249.774 91.5596 250.063C91.6753 250.218 91.7887 250.371 91.9021 250.524C92.0156 250.676 92.129 250.829 92.2447 250.984C92.4299 251.24 92.6428 251.477 92.9669 251.559C93.2521 251.601 93.545 251.634 93.8316 251.668L93.9205 251.678C94.2168 251.888 94.4946 252.125 94.7631 252.362C95.027 252.385 95.2885 252.408 95.5501 252.431C95.8116 252.454 96.0732 252.476 96.3371 252.499C96.6612 252.796 97.071 252.821 97.482 252.846C97.8927 252.871 98.3046 252.896 98.6332 253.193L102.272 253.302C102.548 253.622 102.921 253.68 103.296 253.739C103.499 253.771 103.703 253.803 103.892 253.877C105.17 253.959 106.448 254.032 107.725 254.105C108.258 254.45 108.856 254.456 109.454 254.462C109.979 254.468 110.504 254.473 110.984 254.707L121.641 254.899C121.947 255.082 122.206 255.319 122.465 255.556C125.724 255.656 128.974 255.757 132.224 255.857C132.704 255.759 133.185 255.772 133.665 255.784C133.99 255.792 134.315 255.801 134.64 255.775H135.483C135.875 255.819 136.272 255.798 136.669 255.776C137.342 255.74 138.016 255.704 138.668 255.985C141.14 256.003 143.612 256.019 146.084 256.035C148.556 256.051 151.028 256.067 153.5 256.085C153.667 256.085 153.834 256.081 154 256.076C154.417 256.065 154.834 256.054 155.25 256.113H156.463C160.574 256.04 164.694 256.031 168.805 256.113H170.916C175.814 256.04 180.721 256.049 185.619 256.113C186.702 256.104 187.785 256.094 188.869 256.094H189.193C190.817 256.061 192.442 256.03 194.066 255.999C198.126 255.921 202.187 255.844 206.247 255.72C207.753 255.677 209.257 255.674 210.761 255.671C214.639 255.664 218.514 255.657 222.404 254.954C225.474 254.394 228.637 254.315 231.802 254.237C233.227 254.202 234.652 254.166 236.069 254.087C236.171 254.032 236.264 254.014 236.375 254.05C236.884 254.023 237.384 253.987 237.893 253.95C238.105 253.835 238.344 253.794 238.583 253.753C238.929 253.693 239.274 253.634 239.532 253.348C240.56 253.298 241.59 253.245 242.62 253.193C243.65 253.14 244.68 253.088 245.708 253.038C246.152 252.955 246.578 252.837 246.911 252.499L248.504 252.371C248.772 252.125 249.041 251.888 249.337 251.678C249.833 251.5 250.332 251.319 250.898 251.114C251.261 250.982 251.652 250.84 252.087 250.683C251.81 250.234 251.577 249.853 251.368 249.512C251.123 249.112 250.912 248.769 250.707 248.438C250.05 248.402 249.513 248.375 248.976 248.347C248.546 247.993 248.029 247.986 247.511 247.98C247.015 247.973 246.518 247.966 246.097 247.654C245.811 247.604 245.528 247.554 245.244 247.504C244.958 247.453 244.672 247.403 244.384 247.353C244.307 247.321 244.225 247.297 244.143 247.273C243.92 247.207 243.695 247.142 243.56 246.915L238.532 246.586C237.874 246.365 237.195 246.36 236.519 246.355C236.273 246.354 236.027 246.352 235.782 246.34C235.599 246.33 235.412 246.343 235.224 246.357C234.738 246.393 234.25 246.43 233.829 246.048L229.625 245.902C229.283 245.747 229.024 245.509 228.783 245.226C226.755 245.199 224.725 245.169 222.695 245.14C220.665 245.11 218.635 245.08 216.608 245.053C216.319 244.886 216.069 244.68 215.816 244.471L215.747 244.414C215.432 244.396 215.126 244.387 214.811 244.378C214.737 244.46 214.654 244.46 214.58 244.378C214.467 244.241 214.349 244.109 214.23 243.975C214.174 243.912 214.118 243.849 214.061 243.785C213.932 243.42 213.673 243.155 213.339 242.954L213.284 242.89C213.113 242.628 212.896 242.411 212.678 242.195C212.623 242.141 212.569 242.087 212.515 242.033L212.469 241.941C212.173 241.713 211.913 241.44 211.71 241.12C211.636 240.454 211.562 239.788 211.534 239.496C211.267 239.106 211.031 238.736 210.809 238.388C210.344 237.662 209.939 237.027 209.432 236.485C208.623 235.62 207.779 234.789 206.935 233.96C205.839 232.881 204.744 231.804 203.729 230.654C203.329 230.201 202.856 229.802 202.384 229.403C201.303 228.491 200.22 227.577 199.988 226.009C199.924 225.927 199.882 225.829 199.84 225.73C199.761 225.544 199.681 225.357 199.451 225.279C199.423 225.119 199.393 224.96 199.363 224.8C199.333 224.64 199.303 224.481 199.275 224.321C199.204 224.006 199.001 223.773 198.799 223.54C198.766 223.502 198.733 223.465 198.701 223.427L198.535 219.585C198.364 219.435 198.263 219.241 198.162 219.047C198.059 218.851 197.957 218.655 197.785 218.508V214.201C197.988 213.926 198.157 213.694 198.311 213.483C198.459 213.281 198.593 213.098 198.729 212.915C199.173 212.312 199.646 211.746 200.34 211.409C200.747 211.117 201.157 210.827 201.567 210.537C201.977 210.248 202.386 209.958 202.794 209.666C202.861 209.612 202.933 209.563 203.005 209.513C203.24 209.351 203.477 209.188 203.562 208.881C204.349 208.325 205.145 207.768 205.942 207.211C206.211 207.2 206.363 206.973 206.516 206.747C206.731 206.427 206.946 206.107 207.488 206.39C207.784 207.54 208.071 208.68 208.358 209.83C208.932 210.14 209.488 210.204 209.997 209.712C210.02 209.598 210.041 209.484 210.062 209.369C210.083 209.255 210.103 209.141 210.127 209.027C210.414 208.79 210.682 208.544 210.932 208.27L211.025 208.197C211.146 208.112 211.22 207.991 211.295 207.87C211.38 207.732 211.464 207.595 211.617 207.512C211.626 207.49 211.638 207.465 211.65 207.439C211.661 207.414 211.673 207.389 211.682 207.366C211.913 207.084 212.173 206.828 212.45 206.591C212.472 206.564 212.491 206.54 212.508 206.516C212.52 206.499 212.532 206.482 212.543 206.463L212.588 206.417C212.824 206.177 213.063 205.933 213.228 205.633C213.302 205.332 213.367 205.03 213.432 204.729C213.599 204.556 213.756 204.392 213.913 204.218C214.094 203.921 214.272 203.627 214.451 203.332C214.629 203.038 214.807 202.744 214.987 202.448C215.2 202.156 215.45 201.901 215.728 201.663C215.756 201.618 215.784 201.563 215.802 201.517C216.061 201.262 216.311 200.997 216.543 200.723C216.561 200.609 216.582 200.495 216.603 200.381C216.624 200.267 216.645 200.153 216.663 200.039C216.941 199.802 217.2 199.546 217.404 199.236L217.515 199.145C217.783 198.962 217.987 198.743 218.043 198.415C218.066 198.331 218.091 198.246 218.116 198.16C218.151 198.039 218.186 197.917 218.219 197.794C218.422 197.648 218.577 197.462 218.731 197.275C218.808 197.182 218.885 197.089 218.969 197C219.089 196.802 219.209 196.605 219.337 196.394C219.633 195.907 219.972 195.351 220.45 194.555C220.635 195.622 220.728 196.143 220.82 196.663C220.894 196.964 221.061 197.219 221.348 197.374C221.463 197.428 221.581 197.479 221.7 197.53C221.783 197.566 221.866 197.602 221.95 197.639C222.033 197.621 222.107 197.593 222.181 197.557C222.234 197.39 222.29 197.226 222.346 197.063C222.387 196.941 222.429 196.82 222.468 196.699C222.705 196.651 222.791 196.481 222.877 196.311C222.921 196.222 222.966 196.133 223.033 196.06C223.052 195.823 223.072 195.586 223.093 195.349C223.114 195.111 223.135 194.874 223.154 194.637C223.204 194.646 223.253 194.655 223.302 194.664C223.35 194.673 223.399 194.683 223.45 194.692C223.542 194.368 223.637 194.043 223.732 193.717C223.827 193.39 223.922 193.063 224.015 192.739C224.283 192.529 224.329 192.246 224.283 191.936C224.375 191.527 224.468 191.12 224.56 190.713C224.653 190.303 224.746 189.893 224.839 189.481C225.153 189.354 225.311 189.116 225.366 188.788L225.616 187.912C225.819 187.641 226.063 187.406 226.308 187.172C226.623 186.869 226.938 186.567 227.163 186.187C227.181 185.973 227.202 185.76 227.223 185.548C227.244 185.336 227.264 185.124 227.283 184.91C227.512 184.708 227.634 184.445 227.756 184.181C227.816 184.05 227.876 183.92 227.95 183.796L228.061 182.318C228.301 181.78 228.505 181.232 228.699 180.676L228.866 176.87C229.09 176.465 229.136 176.02 229.181 175.575C229.228 175.118 229.275 174.663 229.514 174.251C229.537 172.883 229.563 171.514 229.588 170.145C229.614 168.776 229.639 167.408 229.662 166.039C230 165.67 230.009 165.231 230.017 164.787C230.02 164.66 230.022 164.532 230.033 164.406C230.041 164.293 230.04 164.177 230.038 164.062C230.034 163.657 230.029 163.255 230.44 162.964C230.486 161.861 230.523 160.759 230.56 159.657L230.56 159.651C230.801 159.378 231.06 159.131 231.366 158.93C231.56 158.94 231.764 158.949 231.959 158.949C232.106 159.123 232.284 159.268 232.463 159.414C232.565 159.497 232.667 159.58 232.764 159.67L235.486 160.436C235.727 160.217 235.718 159.998 235.505 159.77L234.56 156.43C234.276 156.25 234.172 155.969 234.068 155.688C233.992 155.485 233.917 155.281 233.773 155.116L232.773 150.928C232.639 150.82 232.594 150.659 232.549 150.498C232.492 150.292 232.434 150.085 232.19 149.988C232.171 149.623 232.151 149.256 232.13 148.888C232.109 148.521 232.088 148.154 232.07 147.789C232.125 147.576 232.044 147.382 231.962 147.184C231.864 146.949 231.764 146.707 231.884 146.42C232.168 146.774 232.539 146.987 232.905 147.197C233.172 147.351 233.436 147.503 233.662 147.707C233.699 148.126 233.745 148.555 233.792 148.975C233.866 148.938 233.94 148.893 234.014 148.847C234.421 149.445 234.831 150.043 235.241 150.64C235.65 151.238 236.06 151.836 236.468 152.433C236.539 152.529 236.586 152.638 236.632 152.746C236.706 152.918 236.779 153.088 236.949 153.2C237.773 154.313 238.588 155.417 239.403 156.531C240.148 156.846 240.406 157.487 240.664 158.128C240.788 158.435 240.911 158.741 241.088 159.013C241.421 159.533 241.764 160.053 242.106 160.573C242.253 160.759 242.47 160.846 242.686 160.932C242.948 161.037 243.21 161.142 243.347 161.422C243.527 161.696 243.702 161.973 243.877 162.252C244.297 162.918 244.718 163.587 245.208 164.205C245.943 165.139 246.731 166.03 247.52 166.924C247.833 167.279 248.147 167.634 248.458 167.992C248.856 168.641 249.392 169.18 249.927 169.718C250.573 170.368 251.219 171.018 251.624 171.861C252.244 172.664 252.855 173.467 253.467 174.27C254.809 176.122 256.198 177.929 258.142 179.216C258.304 179.462 258.469 179.708 258.633 179.955C258.797 180.201 258.962 180.447 259.124 180.694C259.401 180.922 259.651 181.187 259.864 181.479C259.888 181.492 259.911 181.506 259.936 181.52C259.96 181.534 259.985 181.547 260.012 181.561C260.107 181.639 260.169 181.744 260.231 181.848C260.321 181.998 260.41 182.148 260.596 182.218C260.811 182.436 261.031 182.651 261.252 182.867C261.363 182.975 261.475 183.084 261.586 183.194C261.668 183.4 261.843 183.484 262.018 183.567C262.122 183.617 262.226 183.667 262.309 183.742L262.401 183.842C262.642 184.116 262.892 184.371 263.179 184.599C263.744 184.718 264.299 184.837 264.855 184.955C264.926 185.159 265.095 185.24 265.266 185.322C265.362 185.369 265.46 185.415 265.54 185.484H268.188C270.215 183.924 272.002 182.555 273.734 181.232V179.152C273.672 179.081 273.609 179.011 273.545 178.94C273.362 178.736 273.177 178.529 273.012 178.312L272.845 177.491C272.428 176.624 271.762 176.241 270.78 176.095C269.364 175.885 268.845 174.68 269.623 173.677C270.169 172.974 270.938 172.901 271.743 172.901C272.789 172.91 273.817 172.837 274.493 171.87C274.488 171.593 274.481 171.318 274.474 171.044C274.467 170.777 274.461 170.511 274.456 170.246C274.39 169.905 274.156 169.687 273.923 169.469C273.894 169.442 273.864 169.415 273.836 169.388C273.28 168.831 272.727 168.275 272.174 167.718C271.621 167.161 271.067 166.605 270.512 166.048C270.496 166.032 270.48 166.016 270.464 166.001C270.249 165.788 270.035 165.576 269.725 165.482C269.284 165.237 268.841 164.994 268.375 164.738C267.854 164.452 267.304 164.15 266.697 163.812C266.522 163.798 266.188 163.767 265.814 163.732C265.712 163.722 265.608 163.713 265.503 163.703C265.448 163.656 265.394 163.609 265.341 163.562C265.121 163.371 264.904 163.182 264.651 163.028C263.049 162.982 261.457 162.927 259.864 162.872C259.651 162.635 259.42 162.434 259.087 162.389C258.836 162.211 258.586 162.035 258.336 161.859C258.086 161.684 257.836 161.508 257.587 161.33C256.877 161.035 256.451 160.452 256.025 159.868C255.99 159.82 255.955 159.772 255.92 159.724C255.883 159.688 255.837 159.651 255.8 159.615C255.508 159.406 255.288 159.128 255.067 158.849C254.805 158.517 254.543 158.185 254.161 157.972C253.883 157.571 253.605 157.178 253.328 156.786C253.355 156.686 253.318 156.613 253.226 156.567C252.948 156.266 252.67 155.967 252.393 155.668C252.115 155.369 251.837 155.071 251.559 154.769C251.476 154.61 251.328 154.529 251.18 154.448C251.065 154.385 250.95 154.322 250.865 154.222L250.754 154.131C250.407 153.685 250.001 153.283 249.595 152.882C248.787 152.082 247.979 151.282 247.634 150.134L247.522 150.052C247.245 149.814 246.995 149.55 246.791 149.24C246.356 148.729 245.911 148.208 245.476 147.697C245.393 147.679 245.328 147.634 245.273 147.561L245.134 146.858C243.859 146.01 243.133 144.743 242.406 143.476C242.288 143.27 242.171 143.065 242.051 142.861C242.015 142.695 241.976 142.531 241.938 142.369C241.907 142.237 241.876 142.107 241.847 141.976C241.643 141.675 241.384 141.41 241.115 141.155L239.236 137.87C239.19 137.541 238.986 137.331 238.727 137.149C238.694 137.03 238.664 136.911 238.634 136.793C238.604 136.674 238.574 136.556 238.541 136.437C238.393 136.136 238.162 135.908 237.903 135.689L236.736 133.827C236.694 133.774 236.676 133.695 236.659 133.615C236.619 133.434 236.579 133.251 236.245 133.371C236.181 133.043 236.106 132.714 236.032 132.386L236.032 132.386C235.893 131.628 235.847 130.871 235.829 130.223C236.209 129.642 236.712 129.625 237.203 129.607C237.298 129.604 237.393 129.601 237.486 129.593C237.638 129.582 237.792 129.583 237.947 129.585C238.424 129.589 238.902 129.594 239.301 129.228C239.31 129.064 239.319 128.902 239.328 128.74C239.338 128.578 239.347 128.416 239.356 128.252C239.241 127.964 239.025 127.76 238.804 127.551L238.773 127.522C238.653 127.399 238.534 127.273 238.416 127.148C238.298 127.022 238.18 126.897 238.06 126.774L237.893 126.664L237.727 125.925C237.628 125.816 237.528 125.711 237.428 125.606C237.294 125.464 237.16 125.323 237.032 125.177C236.861 124.771 236.692 124.362 236.523 123.954C236.354 123.546 236.185 123.137 236.014 122.731C235.872 122.553 235.722 122.38 235.572 122.207C235.262 121.85 234.952 121.491 234.708 121.08C234.625 120.76 234.542 120.45 234.458 120.14C234.255 119.866 234.005 119.629 233.727 119.419C233.699 119.3 233.674 119.179 233.648 119.058C233.623 118.937 233.597 118.817 233.57 118.698C233.322 118.399 233.104 118.08 232.887 117.762C232.706 117.499 232.526 117.235 232.329 116.982V115.477H234.431C234.697 115.85 235.084 115.899 235.472 115.949C235.663 115.973 235.855 115.997 236.032 116.061C236.178 116.082 236.322 116.101 236.465 116.12C236.631 116.142 236.794 116.164 236.958 116.188C238.43 116.681 238.782 116.499 238.69 115.312L238.653 115.239C238.354 115.07 238.263 114.783 238.172 114.496C238.097 114.259 238.022 114.022 237.829 113.852L237.782 113.752C237.523 113.478 237.264 113.205 237.014 112.913L236.125 111.516C236.042 111.115 235.773 110.85 235.449 110.631L235.403 110.586C235.23 110.337 235.012 110.122 234.798 109.91C234.737 109.849 234.675 109.789 234.616 109.728L233.653 108.241C233.579 108.158 233.505 108.076 233.431 107.994C233.244 107.787 233.057 107.58 232.884 107.365C232.871 107.264 232.854 107.166 232.838 107.068C232.822 106.97 232.806 106.872 232.792 106.771C232.549 106.556 232.384 106.282 232.219 106.009C231.999 105.645 231.781 105.284 231.384 105.065C231.311 104.783 231.246 104.501 231.181 104.219L231.181 104.216C230.996 103.897 230.94 103.587 231.273 103.313L232.829 103.395C233.222 103.629 233.571 103.918 233.92 104.207C234.172 104.415 234.423 104.622 234.69 104.81C234.958 104.883 235.236 104.965 235.514 105.047C235.568 105.097 235.615 105.154 235.663 105.211C235.772 105.341 235.88 105.471 236.06 105.521C236.199 105.558 236.34 105.597 236.482 105.635C236.623 105.674 236.764 105.713 236.903 105.749C237.262 105.947 237.626 106.14 237.989 106.332C239.402 107.081 240.817 107.83 242.032 108.898C242.138 108.925 242.245 108.95 242.351 108.975C242.458 109 242.564 109.025 242.671 109.053C242.754 109.25 242.928 109.338 243.101 109.427C243.216 109.486 243.332 109.545 243.421 109.637C243.731 109.796 244.041 109.954 244.351 110.111C244.661 110.269 244.972 110.426 245.282 110.586C245.624 111.042 246.124 111.234 246.652 111.38L246.772 111.425C247.013 111.708 247.263 111.982 247.652 112.064L250.541 112.237C250.787 112.142 251.042 112.148 251.297 112.153C251.434 112.156 251.571 112.159 251.707 112.146C252.004 112.11 252.309 112.073 252.615 112.037C252.919 111.956 253.121 111.745 253.325 111.532C253.35 111.506 253.376 111.479 253.402 111.453C253.778 111.057 254.149 110.658 254.519 110.26C254.696 110.07 254.873 109.88 255.05 109.691C255.237 109.465 255.295 109.185 255.353 108.904C255.422 108.573 255.491 108.241 255.772 107.994L255.716 101.762C255.539 101.556 255.342 101.364 255.147 101.173C255.108 101.135 255.07 101.097 255.031 101.059C254.73 100.608 254.427 100.156 254.124 99.7044C253.821 99.2526 253.518 98.8008 253.217 98.3489C253.068 98.1192 252.835 97.9704 252.603 97.8221C252.274 97.6111 251.946 97.4014 251.865 96.9619C251.857 96.8528 251.847 96.7437 251.836 96.6154C251.821 96.4433 251.803 96.2366 251.781 95.949H255.948C256.12 95.7585 256.363 95.7448 256.607 95.731C256.889 95.7152 257.172 95.6992 257.346 95.4107C257.666 95.3147 257.986 95.2146 258.306 95.1143C259.052 94.881 259.801 94.6467 260.559 94.4616C261.809 94.1514 262.42 93.4123 262.383 92.1439C262.621 91.9187 262.703 91.6231 262.786 91.3284C262.86 91.0618 262.934 90.7959 263.123 90.5835C263.12 89.8431 263.116 89.1028 263.112 88.3624C263.104 86.8854 263.096 85.4083 263.096 83.9313C262.997 83.8464 262.902 83.7579 262.808 83.6698C262.689 83.5591 262.571 83.4489 262.447 83.3473C262.406 83.3017 262.364 83.2583 262.322 83.215C262.281 83.1716 262.239 83.1283 262.197 83.0827C261.524 82.3625 260.984 81.5494 260.443 80.7365C260.285 80.4988 260.127 80.2611 259.966 80.0258C259.935 79.9192 259.903 79.8127 259.871 79.7075C259.826 79.5604 259.782 79.4158 259.744 79.2775C259.598 79.2313 259.463 79.185 259.33 79.14C259.201 79.0961 259.076 79.0534 258.948 79.0129C258.753 78.7939 258.55 78.5931 258.309 78.4197C258.196 78.3559 258.08 78.2944 257.964 78.2328C257.682 78.0829 257.398 77.932 257.142 77.7445C256.297 77.1363 255.46 76.5118 254.622 75.8874C254.203 75.575 253.785 75.2626 253.365 74.9522C253.124 74.7606 252.911 74.5507 252.754 74.2861C252.71 74.2627 252.665 74.2376 252.619 74.2122C252.558 74.1784 252.497 74.144 252.439 74.1127C252.15 73.9229 251.818 73.813 251.487 73.7031C250.959 73.5278 250.431 73.3527 250.078 72.8534L249.3 72.5341C249.113 72.4062 248.89 72.362 248.667 72.3179C248.349 72.2549 248.031 72.192 247.819 71.8862C247.749 71.8651 247.683 71.841 247.618 71.8173C247.57 71.8 247.523 71.783 247.476 71.7675C247.408 71.7036 247.356 71.6245 247.304 71.5452C247.223 71.4208 247.142 71.2961 246.995 71.2292C246.518 71.0512 246.039 70.871 245.56 70.6908ZM183.416 220.099C183.275 220.138 183.133 220.177 182.99 220.213L183.045 220.24C182.907 220.322 182.824 220.453 182.742 220.583C182.658 220.715 182.574 220.847 182.434 220.925C181.832 221.226 181.228 221.525 180.624 221.824C180.02 222.122 179.416 222.421 178.814 222.722C178.715 222.923 178.528 223.009 178.341 223.094C178.231 223.145 178.12 223.195 178.027 223.27C177.539 223.41 177.058 223.557 176.573 223.704C176.459 223.739 176.345 223.774 176.231 223.808C176.249 223.927 176.277 224.046 176.305 224.164L174.981 224.246C174.75 224.56 174.409 224.627 174.067 224.694C173.791 224.748 173.515 224.802 173.296 224.985C173.139 225.004 172.979 225.02 172.819 225.036C172.659 225.052 172.5 225.068 172.342 225.086C172.113 225.492 171.731 225.536 171.351 225.579C171.116 225.605 170.882 225.632 170.685 225.743C170.609 225.74 170.535 225.736 170.461 225.731C170.317 225.723 170.174 225.715 170.027 225.715C169.259 224.474 169.389 223.79 170.639 222.531C170.685 222.33 170.74 222.129 170.796 221.929C170 221.208 169.129 221.381 168.241 221.719C168.143 221.728 168.044 221.739 167.944 221.751C167.845 221.762 167.745 221.773 167.648 221.783C167.502 221.873 167.347 221.946 167.192 222.018C166.956 222.13 166.72 222.241 166.518 222.412C166.286 222.434 166.052 222.457 165.817 222.481C165.555 222.508 165.291 222.534 165.028 222.558C164.935 222.613 164.843 222.613 164.741 222.576C164.657 222.59 164.571 222.604 164.485 222.618C164.4 222.631 164.314 222.645 164.232 222.659C164.188 223.02 163.937 223.05 163.688 223.08C163.515 223.1 163.343 223.121 163.241 223.252C162.856 223.284 162.469 223.313 162.083 223.343C161.696 223.373 161.31 223.402 160.926 223.434C160.703 223.585 160.506 223.758 160.308 223.931C160.219 224.009 160.129 224.088 160.037 224.164C159.51 224.192 158.991 224.219 158.463 224.246C158.2 224.459 157.882 224.532 157.564 224.605C157.268 224.673 156.973 224.741 156.723 224.922H154.482C154.093 224.785 153.825 224.529 153.741 224.119C153.723 223.941 153.707 223.76 153.69 223.58C153.674 223.4 153.658 223.22 153.64 223.042C153.677 222.85 153.677 222.668 153.63 222.476L153.501 221.828C152.936 221.326 152.306 221.445 151.667 221.627C151.459 221.659 151.251 221.689 151.042 221.719C150.834 221.748 150.626 221.778 150.418 221.81C150.297 222.138 150.047 222.33 149.723 222.44C149.418 222.467 149.112 222.503 148.807 222.54H148.807C148.555 222.833 148.208 222.908 147.86 222.983C147.579 223.043 147.297 223.104 147.066 223.279C145.205 223.261 143.344 223.233 141.483 223.206C141.21 223.108 140.994 222.934 140.778 222.759C140.693 222.691 140.608 222.622 140.52 222.558C140.372 222.54 140.224 222.519 140.076 222.499C139.927 222.478 139.779 222.458 139.631 222.44C139.27 222.376 139.039 222.129 138.844 221.856C138.353 221.764 137.872 221.673 137.391 221.582C137.039 221.527 136.696 221.545 136.381 221.755L136.317 221.856C136.197 222.049 136.129 222.264 136.061 222.479C135.965 222.782 135.87 223.085 135.631 223.325C135.576 223.909 135.511 224.493 135.446 225.077C135.391 225.414 135.205 225.652 134.881 225.779C134.84 226.195 134.798 226.612 134.756 227.029C134.715 227.447 134.673 227.864 134.631 228.28C134.549 228.539 134.538 228.816 134.527 229.093C134.507 229.598 134.487 230.102 134.039 230.497V232.404C134.405 232.699 134.458 233.115 134.51 233.531C134.559 233.914 134.607 234.296 134.9 234.585C135.641 235.178 136.372 235.762 137.113 236.346C137.369 236.791 137.786 237.05 138.202 237.31C138.478 237.482 138.754 237.654 138.983 237.879C139.395 238.267 139.81 238.655 140.224 239.043C140.638 239.431 141.053 239.818 141.464 240.206C141.649 240.376 141.829 240.55 142.008 240.722C142.099 240.809 142.189 240.896 142.279 240.982C142.492 241.036 142.695 241.091 142.899 241.146L142.899 241.146C143.214 241.347 143.483 241.593 143.696 241.894L145.603 243.601C145.72 243.634 145.837 243.679 145.954 243.725C146.384 243.891 146.815 244.058 147.251 243.628L175.638 243.546C175.714 243.546 175.791 243.534 175.869 243.521C176.074 243.489 176.278 243.456 176.453 243.655C176.472 243.756 176.488 243.856 176.504 243.957C176.52 244.057 176.536 244.157 176.555 244.258C177.079 244.556 177.481 244.307 177.883 244.057C178.205 243.857 178.529 243.656 178.916 243.738C178.999 243.71 179.083 243.68 179.166 243.651C179.249 243.621 179.333 243.592 179.416 243.564C179.545 243.546 179.647 243.482 179.721 243.373C179.999 243.099 180.277 242.834 180.555 242.57C180.937 242.423 180.944 242.111 180.951 241.798C180.957 241.527 180.963 241.256 181.212 241.091L185.48 236.994C185.72 236.541 186.126 236.287 186.534 236.033C186.742 235.903 186.95 235.773 187.138 235.616C188.73 234.205 190.332 232.786 191.85 231.44L192.008 231.3V226.528C191.922 226.39 191.819 226.264 191.717 226.137C191.587 225.977 191.458 225.817 191.359 225.633C191.285 225.141 191.221 224.657 191.156 224.164C191.057 224.056 190.956 223.948 190.855 223.841C190.703 223.679 190.551 223.517 190.406 223.352L190.332 223.27C190.259 223.192 190.163 223.137 190.066 223.082C189.893 222.983 189.719 222.884 189.684 222.649C189.628 222.622 189.582 222.586 189.545 222.54C189.211 222.43 188.962 222.239 188.86 221.892C188.836 221.641 188.814 221.387 188.792 221.131C188.772 220.896 188.752 220.659 188.73 220.423C188.758 220.313 188.721 220.231 188.628 220.167L188.545 220.094C188.334 219.899 188.155 219.661 187.978 219.423C187.532 218.827 187.088 218.233 186.128 218.324C185.888 218.406 185.656 218.488 185.425 218.571C185.241 219.14 184.783 219.41 184.325 219.679C184.159 219.776 183.994 219.873 183.841 219.985C183.698 220.021 183.557 220.06 183.416 220.099Z" fill="black"/>
<path d="M272.845 177.444C272.475 177.244 272.104 177.043 271.345 176.632H270.095C268.336 174.835 268.327 174.515 269.808 172.754C271.512 172.416 273.002 172.124 274.484 171.823C275.169 171.997 275.854 172.179 276.548 172.352C276.53 172.471 276.511 172.59 276.493 172.718C279.178 172.407 281.863 172.097 284.715 171.768C284.918 171.595 285.242 171.321 285.594 171.02H291.39C292.223 170.016 293.047 169.031 293.853 168.055C295.751 166.777 297.658 165.49 299.667 164.131C300.454 163.793 301.251 163.3 302.112 163.118C303.852 162.753 305.639 162.324 307.398 162.333C310 162.351 312.62 162.653 315.204 163.008C316.166 163.136 317.324 163.529 317.065 165.098C312.62 165.372 308.195 165.025 303.482 166.038C304.297 166.887 304.713 167.315 305.26 167.881H319.648C319.685 168.064 319.731 168.246 319.768 168.438C317.824 168.976 315.916 169.724 313.935 169.98C311.861 170.245 309.722 170.044 307.787 170.044C307.074 170.582 306.537 170.993 305.787 171.559C311.296 173.73 316.377 170.491 321.793 171.559C321.33 171.604 321.388 173.283 320.925 173.283C316.407 173.311 311.87 173.656 307.352 173.766C306.454 173.784 305.584 173.949 304.695 174.26C304.741 174.479 304.788 174.698 304.834 174.917C305.76 174.981 320.374 175.024 321.439 175.097C321.744 175.352 322.142 175.699 322.587 176.073C321.976 176.566 307.741 177.025 307.028 177.59C308.741 179.954 321.334 178.907 323.852 179.19C323.898 179.536 323.944 179.929 324 180.421L303.019 181.313C301.936 180.784 300.843 180.355 299.862 179.744C297.649 178.366 295.51 176.851 293.288 175.482C292.622 175.072 291.76 174.789 290.983 174.78C285.057 174.725 279.122 174.752 273.076 174.752C272.975 175.939 272.901 176.687 272.836 177.444H272.845Z" fill="#6BC1E2"/>
<path d="M53.7468 173.365V174.825C55.3578 175.701 57.0614 176.623 58.802 177.572C58.552 180.245 55.9874 180.163 54.7374 181.432C54.7374 180.994 54.7374 180.565 54.7374 180.072C53.2005 178.986 51.6636 178.128 49.5989 178.146C48.2286 178.156 46.8583 177.426 45.4973 177.024C44.9973 176.878 44.4881 176.522 44.0066 176.559C42.1734 176.696 40.6364 176.093 39.0069 175.318C37.8496 174.77 36.3311 174.934 34.9794 174.798C34.5905 174.761 34.1924 174.798 33.8035 174.788C30.0167 174.579 26.2392 174.36 22.6283 174.15C20.434 172.544 18.0267 173.83 15.9805 172.945C14.6102 172.471 13.2399 171.996 11.8789 171.522C11.8604 171.604 11.8419 171.677 11.8326 171.759C11.2401 171.294 10.6475 170.828 9.82348 170.18C9.58276 170.162 8.99946 170.107 8.34209 170.043C8.20321 169.66 8.06433 169.268 7.99026 169.03C6.67552 168.182 5.48115 167.415 4.28678 166.649C4.35159 166.612 4.40714 166.576 4.47195 166.53C2.9813 164.906 1.49065 163.282 0 161.667C0.0370348 161.511 0.0740696 161.356 0.111104 161.201C1.53694 161.448 2.97204 161.657 4.38862 161.949C5.7404 162.223 7.09216 162.543 8.43468 162.88C9.92533 163.254 11.3975 163.665 12.8881 164.066C12.8511 164.249 12.8048 164.431 12.7677 164.614H16.4435L16.3231 165.152C18.073 165.636 19.8136 166.12 21.9339 166.713C21.9894 166.786 22.3042 167.205 22.6098 167.625C22.656 167.488 22.7023 167.342 22.7486 167.205C26.6928 168.319 30.637 169.432 34.572 170.536C34.5627 170.582 34.5442 170.627 34.535 170.682C38.081 171.713 41.6271 172.735 45.1732 173.766C46.6731 174.615 48.5897 173.484 50.1174 175.007H52.2746C52.9042 174.305 53.3301 173.839 53.756 173.365H53.7468Z" fill="#6BC1E2"/>
<path d="M188.433 121.999C190.554 119.362 192.183 116.579 194.396 114.398C196.72 118.368 198.886 121.826 200.794 125.421C201.525 126.799 201.655 128.487 202.025 129.893C201.284 130.759 200.766 131.362 200.257 131.955L199.618 131.873C200.044 134.884 200.47 137.895 200.895 140.916C201.183 143.005 201.747 145.104 201.664 147.185C201.59 149.101 201.09 151.008 199.46 152.523C197.868 154.01 196.896 159.458 198.109 161.803C198.59 162.734 198.497 163.947 198.692 165.216C197.553 165.608 196.535 165.964 195.414 166.347C195.34 167.26 195.377 168.236 195.164 169.158C194.961 170.061 194.507 170.919 193.97 172.279C192.442 173.419 190.368 174.697 188.655 176.348C187.572 177.389 186.943 178.931 186.295 180.336C184.887 183.393 183.609 186.505 182.323 189.489C181.36 189.598 180.776 189.662 180.193 189.726C180.276 189.808 180.35 189.899 180.434 189.981C177.971 192.235 175.536 194.535 173.018 196.725C172.101 197.519 170.62 197.847 170.018 198.787C168.981 200.402 168.425 202.318 167.685 204.116C167.49 204.581 167.37 205.065 167.157 205.74C166.518 204.782 166.027 204.052 165.324 203.003C164.861 205.503 164.453 207.675 163.99 210.157C163.49 210.504 162.805 210.987 162.314 211.334C161.555 208.542 160.852 205.987 160.092 203.176C158.898 203.496 158.065 203.724 157.38 203.906C155.694 201.269 154.426 198.668 151.51 197.281C149.019 196.104 148.065 193.549 146.584 191.095C146.269 191.067 145.649 191.022 144.732 190.949C142.38 186.924 140.131 182.727 140.51 177.571C135.159 175.81 132.89 171.795 132.168 166.484C131.714 166.119 131.15 165.672 130.687 165.298V153.645C128.511 151.729 126.798 149.448 127.52 146.372C128.141 143.726 128.02 140.961 129.418 138.406C130.316 136.764 130.353 134.647 130.687 132.73C130.863 131.69 130.539 130.905 129.353 130.486C128.141 130.048 128.067 128.807 128.465 127.894C129.353 125.877 130.428 123.925 131.548 122.008C133.15 119.28 134.862 116.606 136.529 113.914C136.566 113.851 136.696 113.841 137.029 113.705C137.159 114.617 137.279 115.475 137.409 116.342C138.529 118.076 139.668 119.818 140.862 121.671C142.51 122.081 143.88 121.132 144.816 118.705C145.195 118.723 145.603 118.742 145.825 118.76C145.677 119.983 145.547 121.096 145.408 122.3C146.908 123.395 147.778 125.439 150.037 124.928C152.593 124.354 155.102 123.596 157.611 122.857C158.083 122.72 158.463 122.319 159.018 121.525C160.528 122.036 162.009 122.611 163.546 123.021C164.37 123.24 165.425 123.514 166.092 123.195C168.694 121.945 171.036 123.332 173.471 123.624C176.295 123.961 179.128 124.326 181.952 124.682L181.998 124.244C182.573 123.614 183.156 122.994 183.915 122.164C183.804 121.233 183.656 120.092 183.508 118.851H185.137C185.933 120.138 186.489 121.707 188.396 121.999H188.433Z" fill="#6BC1E2"/>
<path d="M118.687 68.6739C115.224 68.5005 113.021 71.9954 109.141 71.9133C109.345 69.3765 109.354 67.0131 109.771 64.7227C110.188 62.4688 110.271 60.3153 109.734 58.0705C109.132 55.5611 108.79 52.997 108.577 50.4237C108.086 49.639 107.605 48.8451 106.984 47.8504C106.984 42.8043 106.892 37.5208 107.049 32.2557C107.086 30.9234 107.892 29.6003 108.382 28.2862C108.993 26.6528 109.521 24.9738 110.308 23.4226C111.577 20.9405 113.882 19.5718 116.234 18.1574C117.095 17.7468 117.947 17.3179 118.817 16.9346C119.937 16.4327 121.076 15.9674 122.196 15.4655C123.9 14.699 125.576 13.8595 127.307 13.1477C129.529 12.2352 131.798 11.4413 134.02 10.5379C136.288 9.6163 138.482 8.49391 140.788 7.68178C142.862 6.95177 145.01 6.34039 147.176 6.03014C149.445 5.71076 151.75 5.75638 153.741 4.39674C153.991 4.22337 154.407 4.28724 154.741 4.25987C158.768 3.90399 162.712 4.634 166.675 5.13588C170.841 5.65601 174.813 7.16165 179.026 7.53578C180.137 7.63615 181.183 8.74029 182.193 9.4703C182.767 9.88092 183.193 10.4832 183.794 11.0946C183.841 11.7242 183.906 12.4998 183.97 13.2663C184.118 13.2298 184.276 13.1842 184.424 13.1477C184.998 15.0822 185.572 17.0167 186.165 19.0151C185.729 19.3619 185.35 19.663 184.804 20.0919C184.405 20.0919 183.748 20.1832 183.137 20.0737C180.424 19.5992 178.517 21.2234 176.471 22.4736C175.36 23.1579 174.193 23.8149 173.249 24.6818C171.601 26.1966 171.073 28.3227 170.953 30.4033C170.767 33.7339 170.73 37.092 170.962 40.4226C171.073 41.9739 171.943 43.4795 172.443 44.9122C173.064 45.1403 173.471 45.2772 174.036 45.4779C173.721 45.8247 173.471 46.0984 173.443 46.1349C174.138 50.7705 178.23 52.2396 181.174 54.9315C181.859 54.9771 182.693 55.0319 183.693 55.0866C183.915 55.3421 184.22 55.6889 184.591 56.1178C184.202 56.5467 183.896 56.8934 183.443 57.4044C178.165 57.4044 172.814 57.304 167.462 57.4409C163.907 57.5322 160.361 57.888 156.824 58.2895C155.315 58.4629 153.852 59.0926 152.361 59.4758C151.889 59.5944 151.389 59.5579 150.907 59.6401C148.232 60.1054 145.565 60.5708 142.889 61.0545C142.454 61.1274 142.028 61.2552 141.602 61.3465C139.964 61.7023 138.306 62.0126 136.677 62.4141C134.918 62.8521 133.168 63.3266 131.436 63.865C130.029 64.2939 128.677 64.8687 127.279 65.3159C126.27 65.6444 125.215 65.8086 124.215 66.1554C122.78 66.6481 121.372 67.2139 119.974 67.7979C119.558 67.9713 119.206 68.3089 118.706 68.6557L118.687 68.6739Z" fill="#6BC1E2"/>
<path d="M198.525 52.368C198.84 52.7239 199.146 53.0889 199.47 53.463C201.072 51.2091 202.442 49.2746 204.034 47.0207C204.053 47.0207 204.442 46.8382 204.84 46.674C204.886 46.5918 204.951 46.5097 204.96 46.4185C205.312 44.2011 206.071 41.9472 205.895 39.7754C205.682 37.12 204.858 34.4646 203.979 31.9187C202.386 27.2923 199.099 23.8247 195.359 20.7769C194.387 19.9831 193.248 19.2348 192.054 18.8789C190.869 18.523 189.526 18.6964 188.183 18.6325C187.887 18.3132 187.563 17.9664 187.23 17.6105C187.165 16.552 187.1 15.4935 187.035 14.3985C186.628 14.0974 186.239 13.8145 185.767 13.4769V10.8488C187.193 10.5386 188.396 10.5751 189.619 11.5606C190.693 12.4366 192.017 13.0389 193.248 13.7232C194.896 14.6357 196.6 15.4479 198.201 16.4243C200.136 17.6105 201.997 18.9337 203.97 19.9374C205.757 20.6218 207.553 21.2971 209.46 22.0271C211.849 23.8156 214.478 25.522 216.756 27.5934C218.367 29.0625 219.608 30.9697 220.802 32.8221C221.913 34.5376 222.755 36.4265 223.681 38.2515C223.848 38.5891 223.941 38.9815 223.959 39.3648C224.191 43.544 224.459 47.7142 224.589 51.8935C224.691 55.1785 224.607 58.4727 224.607 62.2779C223.533 62.2231 222.543 62.2414 221.58 62.0954C220.589 61.9494 219.626 61.6209 218.635 61.4384C215.839 60.9273 213.043 60.4255 210.247 59.951C208.479 59.6498 206.618 59.6498 204.951 59.0932C201.275 57.8704 197.498 58.3723 193.776 58.0894C193.146 58.0438 192.544 57.6514 192.109 57.4872C192.378 56.4378 192.554 55.7625 192.73 55.0873C192.572 54.6858 192.896 54.4942 193.146 54.4942C194.803 54.5124 195.896 53.3718 197.201 52.66C197.618 52.4319 197.988 52.0395 198.535 52.368H198.525Z" fill="#6BC1E2"/>
<path d="M198.525 52.3664C198.034 52.6584 197.46 52.8683 197.071 53.2607C195.859 54.4561 194.34 54.8576 192.729 55.0857C190.868 55.0492 189.007 55.0127 187.146 54.9762C186.063 54.4378 184.98 53.8812 183.878 53.3793C183.563 53.3428 183.248 53.2972 182.943 53.2607C181.804 52.193 180.369 51.609 178.998 50.9155L178.934 50.8425C178.573 50.66 178.313 50.3863 178.11 50.0486L178.008 50.003C177.702 49.8388 177.674 49.4646 177.443 49.2456L177.387 49.1635C177.082 48.9445 176.804 48.689 176.573 48.3879C176.536 48.1689 176.499 47.9407 176.462 47.7217C175.971 47.2746 176.258 46.4625 175.665 46.061L175.61 45.9697C175.323 45.7142 175.026 45.4678 174.878 45.0937C174.841 44.893 174.814 44.6922 174.777 44.4823C174.304 43.3508 174.221 42.0642 173.323 41.1152C173.267 40.3213 173.221 39.5183 173.165 38.7244C172.823 36.9085 172.823 35.0926 173.165 33.2858C173.212 32.3733 173.249 31.4608 173.295 30.5483C173.832 29.3803 174.573 28.2853 174.517 26.7797C176.332 26.1226 178.971 26.9713 179.711 24.2703L179.758 24.1699C181.239 22.9562 182.841 22.0802 184.868 22.3357C185.359 22.3996 185.831 22.3175 186.211 21.9616C187.017 21.916 187.831 21.8795 188.637 21.8339C189.979 21.2772 191.313 21.2316 192.637 21.8977C192.951 21.9342 193.275 21.9799 193.59 22.0164C193.896 22.2262 194.155 22.4817 194.405 22.7555L194.498 22.8467C196.053 23.9691 196.923 25.7668 198.516 26.8527C198.553 27.0625 198.59 27.2724 198.627 27.4732C198.905 27.7287 199.182 27.9933 199.377 28.3127L199.469 28.4039C200.136 30.0556 201.025 31.6068 201.692 33.2493C201.775 34.317 201.867 35.3846 201.951 36.4522C202.238 36.9998 202.127 37.7024 202.599 38.186C202.599 40.0293 202.617 41.8726 202.617 43.7158C202.219 44.1265 202.192 44.6922 201.969 45.185C201.895 45.7598 201.821 46.3347 201.747 46.9096C201.303 47.7491 200.942 48.6434 200.21 49.3004C200.155 49.565 200.099 49.8296 200.044 50.0943C199.497 50.6144 199.164 51.317 198.581 51.8098C198.553 51.9923 198.534 52.1839 198.507 52.3664H198.525Z" fill="#F5F6F6"/>
<path d="M94.8649 82.6166C94.8094 81.8318 94.7353 81.3299 94.7445 80.8281C94.7723 76.083 94.2723 71.265 94.9575 66.6112C96.1519 58.5172 95.0686 50.4141 95.7908 42.3475C96.0037 39.975 96.7815 37.6481 97.3277 35.1387C99.8646 31.6529 101.531 27.1816 105.772 24.9277L106.161 25.2654C105.762 27.1543 105.299 29.0249 104.975 30.932C104.559 33.3867 103.818 35.8596 105.198 38.296C105.438 38.7158 105.374 39.3271 105.374 39.8564C105.383 41.8365 105.262 43.8349 105.401 45.806C105.494 47.1017 105.948 48.3701 106.244 49.6476C106.429 50.4232 106.781 51.1989 106.79 51.9745C106.836 58.6541 106.864 65.3428 106.79 72.0223C106.781 72.9714 106.244 73.9204 106.096 74.4222C102.226 77.2419 98.698 79.8152 94.8649 82.6075V82.6166Z" fill="#6BC1E2"/>
<path d="M255.531 81.2476C256.55 82.5068 257.633 83.83 258.938 85.436V87.9271L258.512 87.991C258.318 87.5439 258.114 87.0968 257.92 86.6496C257.846 86.7226 257.762 86.8048 257.688 86.8778C256.624 85.8375 255.568 84.8064 254.503 83.7661C254.577 83.6931 254.661 83.6201 254.735 83.5471C251.948 81.4483 249.161 79.3496 246.865 77.6158C242.726 75.6904 239.134 73.9475 235.486 72.3506C233.847 71.6297 232.07 71.2009 230.366 70.6169C228.098 69.8503 225.829 69.0565 223.459 68.4542C222.765 68.2443 222.089 67.9797 221.385 67.8155C218.431 67.1493 215.469 66.5106 212.506 65.8627C210.645 65.452 208.793 64.9684 206.923 64.649C203.645 64.0924 200.358 63.6453 197.072 63.1525C196.636 63.0887 196.201 62.9518 195.766 62.9426C187.841 62.7145 179.915 62.386 171.99 62.3313C167.805 62.3039 163.601 62.7054 159.426 63.043C158.148 63.1434 156.917 63.7183 155.648 64.0468C154.861 64.2475 154.074 64.4118 153.278 64.5487C151.241 64.9045 149.195 65.1874 147.176 65.6072C145.343 65.9813 143.519 66.4284 141.723 66.9486C137.436 68.1896 133.168 69.4945 128.891 70.7629C126.743 71.4016 124.595 72.0039 122.446 72.6335C121.345 72.9529 120.271 73.3544 119.16 73.6099C118.771 73.7011 118.308 73.4821 117.512 73.3361C118.826 72.524 119.78 71.94 120.724 71.356C120.724 71.3925 120.743 71.4381 120.752 71.4746C123.446 70.407 126.15 69.3393 128.844 68.2717C128.844 68.2717 128.844 68.2717 128.844 68.2626C130.326 67.6603 131.779 66.9851 133.298 66.4741C134.52 66.0634 135.807 65.8262 137.075 65.5433C141.075 64.649 145.019 63.5267 149.037 62.6689C153.685 61.6651 158.278 61.5739 162.926 61.2271C165.749 61.0173 168.536 60.3785 171.342 59.9587C171.823 59.8857 172.323 59.8857 172.814 59.8857C179.499 59.9314 186.183 59.904 192.859 60.0956C194.942 60.1504 196.998 60.8439 199.081 61.1633C200.146 61.3275 201.238 61.4279 202.303 61.3731C204.497 61.2545 206.478 61.9115 208.497 62.6324C209.525 62.9974 210.747 62.8058 211.83 63.0522C213.173 63.3624 214.469 63.8734 215.783 64.3023C215.913 64.3479 216.043 64.4939 216.163 64.4848C218.644 64.2932 220.82 65.3517 223.126 65.9904C224.792 66.4558 226.44 66.7113 228.033 67.5508C229.699 68.4268 231.718 68.6367 233.523 69.2755C236.06 70.1788 238.597 71.1187 241.05 72.2137C243.68 73.3909 246.235 74.7231 248.772 76.0645C249.55 76.4752 250.161 77.196 250.883 77.7344C252.411 78.8933 253.957 80.034 255.531 81.2111V81.2476Z" fill="#6BC1E2"/>
<path d="M174.851 105.594L174.647 105.02C174.453 104.782 174.416 104.426 174.12 104.253L174.036 104.171C173.823 103.861 173.573 103.596 173.296 103.341V100.922C173.555 100.712 173.823 100.703 174.101 100.895C177.268 100.941 180.434 100.986 183.601 101.041C183.952 101.379 184.499 101.415 184.952 101.999C185.212 103.295 185.249 104.983 187.063 105.658C188.665 105.64 190.276 105.622 191.878 105.594C192.007 105.184 192.776 105.567 192.739 104.937C192.804 104.892 192.859 104.828 192.887 104.755C193.359 104.864 193.294 104.363 193.535 104.198C193.85 103.678 194.174 103.149 194.489 102.629C195.174 101.525 196.091 101.233 197.433 101.342C199.655 101.525 201.896 101.424 204.146 101.351C205.275 102.227 204.683 103.268 204.497 104.262C203.775 106.425 201.803 107.219 200.026 108.241C199.813 108.496 199.461 108.524 199.201 108.715C198.692 108.797 198.183 108.87 197.674 108.952C197.192 109.381 196.489 109.263 195.97 109.609L194.461 109.765C194.1 110.057 193.665 110.111 193.211 110.111C190.221 110.111 187.221 110.111 184.23 110.111C183.777 110.111 183.351 110.057 182.99 109.755C180.851 109.336 178.61 109.181 177.064 107.346C176.971 107.228 176.694 107.264 176.499 107.228C175.823 106.808 175.203 106.324 174.842 105.594H174.851Z" fill="#F5F6F6"/>
<path d="M134.918 108.305C133.436 107.2 131.936 106.124 130.483 104.983C130.159 104.728 130.001 104.253 129.77 103.87C129.566 103.249 129.307 102.647 129.122 102.072C129.214 101.534 129.418 101.132 129.872 100.886C133.131 100.931 136.399 100.968 139.658 101.014C139.936 101.278 140.427 101.205 140.565 101.479C140.991 102.145 140.852 102.793 141.01 103.386C141.38 104.162 142.297 104.372 142.778 105.038L142.862 105.093C144.649 105.467 146.398 105.64 147.889 104.262C148.908 103.35 149.935 102.446 150.954 101.534C150.852 101.351 150.75 101.169 150.648 100.977C152.768 100.977 154.889 100.977 157.009 100.977C157.74 100.977 158.49 101.059 159.194 100.913C159.611 100.822 159.953 100.366 160.324 100.065C160.481 99.9003 160.638 99.9003 160.796 100.065C161.055 103.103 159.435 105.257 157.296 107.118C157.027 107.356 156.453 107.264 156.027 107.319C155.759 107.721 155.287 107.803 154.916 108.058C154.722 108.095 154.518 108.122 154.324 108.159C154.028 108.332 153.722 108.505 153.389 108.551C148.491 109.226 143.602 110.057 138.63 109.181C138.436 109.144 138.26 109.053 138.075 108.998C138.01 108.962 137.936 108.934 137.862 108.925C137.658 108.213 137.066 108.569 136.64 108.514C136.066 108.432 135.455 108.624 134.918 108.295V108.305Z" fill="#F5F6F6"/>
<path d="M172.453 89.7718V85.8024C174.008 85.4191 175.48 84.9811 176.98 84.7165C179.915 84.2055 182.859 83.6945 185.822 83.3842C188.063 83.147 190.424 83.5941 192.563 83.074C195.664 82.3166 198.757 82.4261 201.868 82.3166C203.627 82.2527 205.395 82.3075 207.293 82.3075C207.802 83.731 209.46 84.4701 209.163 86.4046C208.589 86.4046 208.071 86.4046 207.543 86.4046C204.645 86.4046 201.747 86.505 198.858 86.4046C196.423 86.3225 194.099 86.8244 191.739 87.2624C189.609 87.6548 187.415 87.7369 185.257 88.0289C183.924 88.2114 182.471 88.2662 181.304 88.8228C178.424 90.2007 175.471 89.3338 172.453 89.7627V89.7718Z" fill="#6BC1E2"/>
<path d="M123.391 84.5503C123.678 82.2873 125.762 81.9588 126.706 81.1558C129.16 81.2926 131.224 81.3839 133.289 81.539C136.965 81.8128 140.668 81.9679 144.316 82.4698C148.195 83.0082 152.029 83.8933 155.889 84.6324C157.26 84.8971 158.63 85.1799 159.991 85.4446V89.6147C157.76 89.487 155.621 90.0071 153.436 89.0398C152.066 88.4285 150.464 88.319 148.945 88.0635C145.436 87.4795 141.862 86.8954 138.455 86.1381C133.613 85.0704 128.854 84.8423 124.002 84.7328C123.864 84.7328 123.725 84.6507 123.401 84.5594L123.391 84.5503Z" fill="#6BC1E2"/>
<path d="M176.518 244.259C176.926 244.059 177.333 243.849 178.009 243.511C178.101 243.539 178.49 243.639 178.888 243.739C178.768 247.052 179.888 247.097 183.86 247.608C188.527 248.211 193.304 248.238 198.017 248.165C200.878 248.119 203.729 247.426 206.59 247.015C208.553 246.732 210.525 246.45 212.479 246.103C212.905 246.03 213.275 245.683 213.886 245.355C213.997 246.212 214.118 247.107 214.275 248.357C212.599 248.685 211.146 249.141 209.664 249.224C202.841 249.57 196.008 249.853 189.175 250.063C186.147 250.154 183.11 250.109 180.083 249.972C178.907 249.917 177.759 249.415 176.509 249.096V244.287L176.518 244.259Z" fill="#6BC1E2"/>
<path d="M112.141 248.008C114.011 248.501 115.817 248.975 117.622 249.45C118.132 249.586 118.641 249.86 119.159 249.86C127.742 249.888 136.325 249.878 144.445 249.878C146.51 249.404 146.019 246.557 148.445 246.922C149.111 248.838 149.333 250.645 147.602 252.333C140.065 252.333 132.418 252.47 124.77 252.269C121.178 252.178 117.613 251.421 114.03 250.964C112.502 250.773 111.512 250.152 112.151 247.999L112.141 248.008Z" fill="#6BC1E2"/>
<path d="M83.3286 102.299V97.9279C86.0322 94.7067 89.2171 92.2521 93.8558 91.8506V96.2671C92.3281 97.864 90.8097 99.2967 89.4764 100.884C87.7913 102.892 85.6618 102.536 83.3286 102.299Z" fill="#6BC1E2"/>
<path d="M241.8 101.423C241.495 101.715 241.162 102.053 240.819 102.381H236.504C234.468 100.027 232.32 97.5542 229.931 94.7984C231.033 94.5338 231.551 94.2874 232.051 94.3056C234.153 94.3878 236.329 94.26 238.338 94.7436C241.569 95.5193 242.282 97.18 241.791 101.423H241.8Z" fill="#6BC1E2"/>
<path d="M182.221 137.44C182.536 139.174 182.119 140.588 181.045 142.112C180.054 143.499 179.064 144.722 177.517 145.333C175.86 145.99 174.119 146.547 172.37 146.839C170.888 147.085 169.323 147.003 167.814 146.875C164.944 146.629 162.111 146.227 159.991 143.964C159.676 143.636 159.157 143.49 158.602 143.189C158.574 142.623 158.546 141.975 158.509 141.126C162.472 142.897 166.24 145.47 170.583 142.039C170.925 142.002 171.462 141.938 171.712 141.902C173.564 140.643 175.212 139.529 177.249 138.152C177.212 138.234 177.388 137.841 177.545 137.476C179.073 136.692 180.554 135.587 182.221 137.458V137.44Z" fill="black"/>
<path d="M190.396 41.9745C189.906 42.0292 189.424 42.084 188.933 42.1387C187.915 42.522 186.628 42.3121 185.859 43.5987C185.776 44.785 185.369 46.2085 186.767 47.2944C187.767 47.3856 188.785 47.413 189.757 46.9933C191.044 46.6374 192.322 46.2906 193.609 45.9347C194.387 45.6519 195.164 45.6062 195.933 45.9712C196.359 46.6283 196.794 47.2944 197.331 48.1248C196.572 48.4168 196.238 48.5445 195.905 48.6723C195.526 49.092 194.905 48.7818 194.507 49.1468C193.415 49.4935 192.322 49.8403 191.22 50.1779C190.924 50.3969 190.655 50.6707 190.313 50.8258L190.193 50.8897C188.433 51.6927 186.683 51.6836 184.924 50.8897L184.804 50.8349C184.452 50.6707 184.202 50.3878 183.943 50.1049L183.86 50.0319C183.582 49.7764 183.304 49.5209 183.091 49.2107L182.943 48.6175C182.258 47.8875 182.924 46.7743 182.193 46.0534C182.128 45.4602 182.073 44.858 182.008 44.2649C181.36 40.0856 180.786 35.8971 181.128 31.6448C181.776 31.2981 182.434 30.9605 183.082 30.6137C183.387 30.1666 183.795 29.7742 184.341 29.7286C185.202 29.6647 185.878 29.1993 186.6 28.8434C188.933 28.5879 191.257 28.5788 193.452 28.8799C194.377 30.2122 193.84 30.9422 192.841 31.5445C192.313 31.5718 191.785 31.5992 191.267 31.6357C190.757 32.019 189.961 31.7635 189.544 32.3657C189.22 32.4022 188.896 32.4387 188.582 32.4752C187.906 32.9862 186.887 32.4752 186.295 33.2326L186.165 33.2782C185.6 33.7345 185.23 34.3733 184.702 34.8569C184.693 35.1124 184.674 35.3679 184.665 35.6143C185.341 36.5724 184.702 37.8773 185.526 38.7989L185.619 38.8537C186.1 39.3373 186.637 39.2187 187.193 39.0088C188.73 38.9723 190.267 38.9358 191.804 38.8902C192.822 40.3867 192.479 41.1441 190.387 41.9653L190.396 41.9745Z" fill="black"/>
<path d="M185.638 28.1853C185.591 27.6378 185.554 27.0995 185.508 26.552C185.601 26.3603 186.881 26.2029 186.973 26.0112C187.732 26.3032 187.304 26.552 188.591 27.0447C187.508 27.6561 186.897 28.0028 186.286 28.3405C186.027 28.4773 185.795 28.4865 185.638 28.1853Z" fill="black"/>
<path d="M180.609 28.4596C180.979 28.1402 181.35 27.8209 182.053 27.2095C182.489 27.684 183.372 27.2095 183.85 29.1714C182.553 29.2261 182.516 29.9769 181.85 30.0043C181.674 29.9678 180.868 29.2079 180.609 29.1531V28.4687V28.4596Z" fill="black"/>
<path d="M190.815 24.6798C191.555 24.6433 191.257 25.1193 192.266 25.0737C192.072 25.7216 191.942 26.1413 191.702 26.9534C190.868 26.4972 190.211 26.1413 189.563 25.7763C189.637 25.5756 189.711 25.3839 189.776 25.1832L190.815 24.6798Z" fill="black"/>
</svg>
